<?xml version="1.0" encoding="utf-8"?>
<!-- Generator: Adobe Illustrator 23.0.1, SVG Export Plug-In . SVG Version: 6.00 Build 0)  -->
<svg version="1.0" id="Layer_1" xmlns="http://www.w3.org/2000/svg" xmlns:xlink="http://www.w3.org/1999/xlink" x="0px" y="0px"
	 viewBox="0 0 200 200" style="enable-background:new 0 0 200 200;" xml:space="preserve">
<style type="text/css">
	.st0{fill:#E6EFFF;}
	.st1{fill:#D8E5F4;}
	.st2{fill:#00A28A;}
	.st3{fill:#424242;}
	.st4{fill:#00CAAC;}
	.st5{fill:#2BB5E5;}
	.st6{fill:#FFB79F;}
	.st7{fill:#AC7D7D;}
	.st8{fill:#FF9585;}
	.st9{fill:#2F1EB1;}
	.st10{fill:#473ED2;}
</style>
<g>
	<path class="st0" d="M117.69,175.23c0,0-35.89,4.22-55.61,5.36c-19.72,1.14-54.9-11.46-54.17-34.4s25.84-29.06,36.36-52.03
		s24.95-67.34,63.06-63.33s59.72,7.47,68.25,31.01c8.53,23.54,0.4,32.82,3.38,47.64s18.9,25.39,16.45,36.55
		C192.97,157.21,167.67,179.51,117.69,175.23z"/>
	<path class="st1" d="M162.3,180.67c-9.08,0-22.22-1.84-36.86-3.9c-17.84-2.5-38.05-5.34-53.31-4.9c-2.91,1-50.15,17.04-64.52,2.33
		c-8.07-8.26,0.82-21.83,11.11-37.54c8.41-12.85,17.95-27.42,18.36-40.43C37.52,81.6,48.4,63.15,64.78,49.21
		c17.24-14.67,37.47-21.74,55.52-19.39c41.8,5.43,61.66,19.15,64.38,44.48c1.48,13.83-1.49,20.78-3.88,26.37
		c-2.1,4.9-3.76,8.78-2.14,15.59c1.64,6.9,4.93,12.82,7.84,18.05c3.57,6.42,6.66,11.96,6.38,17.97c-0.51,10.99-6.82,24.04-23,27.73
		C167.85,180.46,165.29,180.67,162.3,180.67z M75.35,170.82c14.89,0,33.59,2.62,50.23,4.96c18.57,2.61,36.11,5.06,44.07,3.25
		c15.64-3.56,21.74-16.18,22.23-26.8c0.26-5.73-2.76-11.15-6.25-17.44c-2.94-5.29-6.28-11.28-7.94-18.31
		c-1.69-7.13,0.11-11.34,2.2-16.21c2.47-5.77,5.27-12.3,3.81-25.87c-2.66-24.79-22.25-38.23-63.51-43.59
		c-17.77-2.3-37.72,4.67-54.74,19.16C49.26,63.74,38.52,81.9,38.07,96.25c-0.42,13.29-10.03,27.99-18.52,40.95
		C9.49,152.55,0.81,165.81,8.32,173.49c14.07,14.41,63.06-2.42,63.55-2.6l0.15-0.03C73.11,170.83,74.22,170.82,75.35,170.82z"/>
	<path class="st2" d="M106.52,157.6c11.63,0.1,20.92,1.25,27.26,2.36v-29.45c-1.15-0.16-2.27-0.32-3.36-0.47
		c-2.82,6.07-10.29,18.93-23.12,19.45c-11.95,0.49-21.67-12.35-26.29-19.82c-1.71,0.45-3.44,0.86-5.08,1.21v28.68
		C83.45,158.55,94.33,157.5,106.52,157.6z"/>
	<path class="st3" d="M143.36,162.1v-29.81c-3.13-0.81-6.44-1.33-9.58-1.77v29.45C139.97,161.05,143.36,162.1,143.36,162.1z"/>
	<path class="st3" d="M75.94,159.57v-28.68c-2.9,0.62-5.47,1.08-6.99,1.32c-0.96,0.15-2.24,0.56-3.66,1.18v27.93
		C65.29,161.32,69.3,160.46,75.94,159.57z"/>
	<path class="st4" d="M107.3,149.49c12.83-0.52,20.3-13.38,23.12-19.45c-3.19-0.46-6.02-0.96-8.07-1.78
		c-2.68,4.89-7.56,11.29-14.95,11.95c-8.44,0.75-14.45-8.26-17.33-13.8c-2.2,1.23-5.58,2.34-9.06,3.26
		C85.64,137.14,95.36,149.98,107.3,149.49z"/>
	<path class="st2" d="M157.92,145.68c0,0-1.47-9.09-11.87-12.61c-0.87-0.3-1.78-0.55-2.69-0.79v29.81v37.52h14.56V145.68z"/>
	<path class="st5" d="M133.79,159.97c-6.35-1.11-15.64-2.26-27.26-2.36c-12.2-0.1-23.07,0.95-30.59,1.96
		c-6.63,0.89-10.65,1.75-10.65,1.75v38.3h10.65h57.85h9.58V162.1C143.36,162.1,139.97,161.05,133.79,159.97z"/>
	<path class="st2" d="M65.29,133.38c-5.54,2.42-13.37,8.15-14.07,15.38c-0.88,9.09,0,50.86,0,50.86h14.07v-38.3V133.38z"/>
	<path class="st6" d="M119.37,126.04c-1.16-2.12-1.29-5.49-1.11-8.48c0,0-4.58,5.23-12.05,4.35c-7.46-0.88-11.76-5.8-11.77-5.81
		c-0.2,3.39-0.84,7.28-2.63,9.07c-0.43,0.43-1.03,0.84-1.75,1.25c2.88,5.54,8.9,14.55,17.33,13.8c7.39-0.66,12.27-7.05,14.95-11.95
		C120.96,127.71,119.9,127,119.37,126.04z"/>
	<polygon class="st7" points="118.26,117.56 118.26,117.56 118.26,117.56 	"/>
	<polygon class="st7" points="94.44,116.1 94.44,116.1 94.44,116.1 	"/>
	<path class="st8" d="M94.41,110.02c0,0,0.22,2.81,0.03,6.08c0,0,0,0,0,0c0.01,0.01,4.31,4.94,11.77,5.81
		c7.47,0.88,12.05-4.35,12.05-4.35c0.21-3.41,0.84-6.33,0.84-6.33L94.41,110.02z"/>
	<circle class="st9" cx="112.13" cy="46.76" r="10.57"/>
	<path class="st6" d="M129.45,83.35c-1.92,22.86-9.33,31.65-22.34,31.65s-19.67-10.71-22.96-30.49
		c-2.74-16.42,9.96-24.62,22.96-24.62S130.55,70.29,129.45,83.35z"/>
	<path class="st10" d="M118.01,69.78c0,0-17.59,15.44-24.43,18.57c-6.84,3.13-8.21,2.93-8.21,2.93l-2.54,0c0,0-1.76-5.28-1.76-13.49
		s5.25-22.85,15.83-27.17c8.37-3.42,23.26-1.17,28.73,3.91c2.93,0.2,7.62,3.71,8.79,7.04c1.17,3.32,1.56,13.48,1.17,18.96
		s-2.74,11.14-4.3,14.07s-4.89,5.28-4.89,5.28s2.54-10.36,1.37-17C126.61,76.22,118.01,69.78,118.01,69.78z"/>
</g>
</svg>
