<?xml version="1.0" encoding="utf-8"?>
<!-- Generator: Adobe Illustrator 23.0.1, SVG Export Plug-In . SVG Version: 6.00 Build 0)  -->
<svg version="1.0" id="Layer_1" xmlns="http://www.w3.org/2000/svg" xmlns:xlink="http://www.w3.org/1999/xlink" x="0px" y="0px"
	 viewBox="0 0 200 200" style="enable-background:new 0 0 200 200;" xml:space="preserve">
<style type="text/css">
	.st0{fill:#E6EFFF;}
	.st1{fill:#D8E5F4;}
	.st2{fill:#7C44D7;}
	.st3{fill:#FFD6E0;}
	.st4{fill:#F5CAD5;}
	.st5{fill:#2F1EB1;}
	.st6{fill:#FFB79F;}
	.st7{fill:#FBC012;}
	.st8{fill:#FFD31A;}
	.st9{fill:#424242;}
	.st10{fill:#F3F3F3;}
	.st11{fill:#2BB5E5;}
	.st12{fill:#00A28A;}
	.st13{fill:#EC9566;}
	.st14{fill:#DEC770;}
	.st15{fill:#00CAAC;}
	.st16{fill:#FF9585;}
	.st17{fill:#473ED2;}
	.st18{fill:none;}
	.st19{fill:#C0DCFB;}
	.st20{fill:#62B2A2;}
	.st21{fill:#B0CEEB;}
	.st22{fill:#2D997A;}
</style>
<g>
	<path class="st0" d="M47.61,82.39c0,0,18.19-43.01,41.92-60.14s30.29,23.04,48.34,34.09s30.85-2.3,44.02,18.74
		s-2.6,75.35-42.09,92.93s-86.37,19.63-107.28,7.05c-20.91-12.58-39.6-64.4-20.42-84.13S27.57,95.39,47.61,82.39z"/>
	<path class="st1" d="M75.67,187.07l-0.05-0.01c-0.19-0.03-18.92-3.49-37.04-11.46c-24.13-10.61-36.23-24.38-35-39.83
		c2.34-29.4,5.27-56.43,15.31-64.2c2.51-1.94,5.41-2.63,8.64-2.06c16.68,2.94,51.01-5.36,60.24-20.75
		c7.75-12.93,21.11-23.65,29.8-23.9c2.93-0.09,5.23,1.01,6.75,3.25c1.86,2.74,3.8,6.5,5.86,10.48c5,9.68,11.23,21.72,19.91,25.87
		c4.29,2.05,9.29,2.76,14.12,3.44c8.95,1.27,18.2,2.58,22.69,12.64c6.73,15.1,3.58,48.67-8.29,59.97c-2.18,2.08-3.95,5.03-5.99,8.44
		c-9,15.03-22.6,37.75-96.9,38.11H75.67z M25.37,70.32c-2.15,0-4.08,0.68-5.86,2.05C9.79,79.89,6.9,106.69,4.58,135.86
		c-2.86,35.96,69,49.81,71.18,50.22c73.71-0.37,87.12-22.79,96-37.63c2.08-3.48,3.88-6.48,6.16-8.65
		c11.62-11.06,14.68-44,8.06-58.84c-4.26-9.56-12.84-10.78-21.92-12.06c-4.91-0.69-9.98-1.41-14.41-3.53
		c-8.98-4.29-15.29-16.5-20.36-26.32c-2.04-3.95-3.97-7.69-5.8-10.37c-1.32-1.94-3.29-2.89-5.9-2.81
		c-8.24,0.24-21.51,10.96-28.97,23.41c-9.58,16-43.94,24.29-61.27,21.23C26.68,70.38,26.01,70.32,25.37,70.32z"/>
	<polygon class="st2" points="49.89,147.65 49.89,147.65 194,147.65 164.06,183.62 17.31,183.62 	"/>
	<g>
		<path class="st3" d="M129.55,138.98H81.76c-2.6,0-4.71-2.11-4.71-4.71V94.88c0-2.6,2.11-4.71,4.71-4.71h47.78
			c2.6,0,4.71,2.11,4.71,4.71v39.39C134.26,136.87,132.15,138.98,129.55,138.98z"/>
		<path class="st4" d="M68.13,168.52h3.67c2.89,0,5.25-2.36,5.25-5.25v-35.69c0-2.89-2.36-5.25-5.25-5.25h-3.67
			c-2.89,0-5.25,2.36-5.25,5.25v35.69C62.88,166.16,65.24,168.52,68.13,168.52z"/>
		<path class="st4" d="M139.51,168.52h3.67c2.89,0,5.25-2.36,5.25-5.25v-35.69c0-2.89-2.36-5.25-5.25-5.25h-3.67
			c-2.89,0-5.25,2.36-5.25,5.25v35.69C134.26,166.16,136.62,168.52,139.51,168.52z"/>
		<path class="st4" d="M134.26,141.5c0-1.31-1.07-2.37-2.37-2.37H79.42c-1.31,0-2.37,1.07-2.37,2.37v2.51h57.21V141.5z"/>
		<path class="st3" d="M77.05,144.01v20.56c0,1.31,1.07,2.37,2.37,2.37h52.46c1.31,0,2.37-1.07,2.37-2.37v-20.56H77.05z"/>
	</g>
	<g>
		<path class="st5" d="M44.91,46.27c-0.96-1.35-2.53-2.23-4.31-2.23c-2.92,0-5.28,2.37-5.28,5.28c0,0.45,0.06,0.88,0.17,1.3
			c0.58,2.29,2.65,3.99,5.12,3.99c2.92,0,5.28-2.37,5.28-5.28C45.89,48.19,45.53,47.14,44.91,46.27z"/>
		<g>
			<path class="st6" d="M42.95,184.43c-0.11,1.56-0.25,3.61-0.25,3.61s-1.09,2.18-1.22,3.59c0.55,0.73,1.55,1.55,3.31,1.8
				c3.39,0.47,10.14,0.2,11-0.64c0.26-0.25,0.46-0.47,0.63-0.65c-2.04-1.05-7.73-2.8-8.13-3.63c-0.45-0.94-0.04-3.51-0.04-3.51
				l0.38-0.88l-5.45,0.3L42.95,184.43z"/>
			<polygon class="st7" points="41.46,172.21 40.46,185.08 42.51,184.95 43.05,173.04 			"/>
			<path class="st8" d="M53.89,174.93c-2.84-0.11-5.74-0.27-8.2-0.5l-2.64-1.38l-0.54,11.91l1.44-0.09l0.3-0.02l7.15-0.44l2.2-0.13
				l0.44-8.22L53.89,174.93z"/>
			<path class="st9" d="M44.78,193.42c-1.76-0.24-2.76-1.06-3.31-1.8c-0.01,0.15-0.02,0.3-0.01,0.43c0.11,1.34,1.6,2.78,5.07,3.28
				c3.47,0.5,7.23,0.27,8.98-0.2c1.75-0.47,2.61-1.67,1.45-2.64c-0.12-0.1-0.32-0.22-0.56-0.35c-0.17,0.18-0.37,0.4-0.63,0.65
				C54.92,193.62,48.17,193.89,44.78,193.42z"/>
			<path class="st10" d="M37.38,92.48c-0.14,1.64-0.35,4.08-0.5,6.25c0,0,0.32-2.77,0.56-6.26L37.38,92.48z"/>
			<path class="st10" d="M37.56,90.47c-0.01,0.07-0.02,0.13-0.02,0.13s-0.07,0.75-0.17,1.88l0.06-0.01
				C37.48,91.82,37.53,91.15,37.56,90.47z"/>
			<path class="st6" d="M53.21,56.01c0,0-2.2-4.62-4.11-5.72c-1.91-1.1-4.33,0.07-7.92,0.95c-3.6,0.88-4.62,8.36-2.64,15.41
				c0.45,1.6,1.18,2.8,2.03,3.72c2.6,2.79,6.38,2.9,7.19,2.89c0.1,0,0.16,0,0.16,0C54.54,70.61,53.21,56.01,53.21,56.01z"/>
			<path class="st11" d="M32.65,152.99l12.37-30.41c-0.25-0.2-0.49-0.43-0.71-0.68c-1.76-1.96-0.88-2.54-1.86-3.03
				c-0.74-0.37-4.87-1.85-7.91-3.53c-0.25,1.84-0.44,3.39-0.55,4.36c-0.48,4.4-3.23,10.42-6.12,20.4
				c-1.07,3.68-1.49,8.81-1.55,13.94C28.15,153.05,30.34,152.43,32.65,152.99z"/>
			<path class="st9" d="M37.56,90.47c-0.04,0.68-0.08,1.35-0.12,2l3.89-0.65c0,0,0.15-4.55,0.15-8.51c0-2.09-0.89-5.1-1.74-7.5
				c-0.37,0.37-1.47,1.04-2.83,1.89c0.24,1.15,0.47,2.51,0.64,4.1C38.25,85.44,37.67,89.72,37.56,90.47z"/>
			<path class="st12" d="M57.6,79.68c-0.66-0.25-1.32-0.46-1.91-0.68l-0.42,2.11c0,0,0,6.55,0,10.96c0,0.03,0.01,0.06,0.01,0.1
				c0.02,0.96,0.36,2,0.89,3.04l1.03-2.54l1.11-2.72l3.02-7.41C60.33,80.95,58.95,80.2,57.6,79.68z"/>
			<path class="st9" d="M53.95,91.82l1.33,0.34c0-0.03-0.01-0.06-0.01-0.1c0-4.4,0-10.96,0-10.96L55.69,79
				c-0.04-0.02-0.09-0.03-0.13-0.05c-0.53-0.21-1.16-0.37-1.83-0.52c0.11,0.29,0.23,0.59,0.36,0.92
				C55.71,83.45,53.95,91.82,53.95,91.82z"/>
			<path class="st11" d="M57.32,118.09c0.15-4.11-0.29-7.63,0-13.35c0.05-1.04,0.12-1.99,0.2-2.88l-5.85,13.89
				c0.71,0.69,1.15,1.37,1.15,1.37s-1.27,5.58-2.74,6.36c-0.5,0.27-1.14,0.4-1.82,0.37l-12.4,29.47l-0.54,0.86
				c0.11,0.07,0.21,0.13,0.32,0.21c7.34,5.21,1.25,16.07,1.25,16.07l-1.74,2.68l-0.85,1.31c2.47,0.23,5.37,0.39,8.2,0.5
				c6.4,0.25,12.47,0.25,12.47,0.25s1.47-0.59,2.24-2.49c0.78-1.91,2.45-24.21,2.45-33.02C59.67,130.86,57.18,122.2,57.32,118.09z"
				/>
			<path class="st6" d="M69.52,73.41c0-2.18-0.29-3.7-0.82-4.23c-0.34-0.34-1.07-0.35-1.92,0.02c-0.6,0.26-1.26,0.7-1.9,1.35
				c0,0-2.84,2.05-2.35,4.7c0.18,0.97,0.44,1.83,0.73,2.58c0.51,1.31,1.12,2.31,1.62,2.99c0.48,0.66,0.66,1.35,0.71,1.92
				c0.03,0.37,0.01,0.69-0.03,0.92c-0.04,0.24-0.5,0.98-1.15,2.29l-1.26,2.86l-0.71,1.81c-0.13,0.56-0.36,1.05-0.4,1.65
				c-0.29,4.3-0.14,8.41,0,8.9c0.19,0.68,0.4,0.88,0.84,1.36l0,0c0.47,0.48,3.86,2.46,4.74,0.41s2.35-10.08,1.76-13.11
				c-0.59-3.03-0.39-5.38-0.59-7.73c-0.2-2.35,0.66-5.48,0.72-8.02C69.52,73.84,69.52,73.63,69.52,73.41z"/>
			<path class="st13" d="M32.65,152.99c0.88,0.21,1.77,0.59,2.67,1.18l0.54-0.86l12.4-29.47c-1.05-0.04-2.22-0.44-3.24-1.26
				L32.65,152.99z"/>
			<g>
				<path class="st13" d="M74.35,56.75c-1.54-0.73-3.01,1.17-3.01,1.17l-4.58,11.27c0.85-0.36,1.58-0.36,1.92-0.02
					c0.53,0.53,0.82,2.05,0.82,4.23l6.02-14.31C75.52,59.09,75.89,57.48,74.35,56.75z"/>
				<path class="st13" d="M63.24,77.82l-1.91,4.7l-3.02,7.41l-1.11,2.72l-1.03,2.54l-7.76,19.08c0.13-0.01,0.27-0.01,0.4,0
					c1.13,0.05,2.14,0.77,2.86,1.47l5.85-13.89l1.26-3l3.51-8.33l0.75-1.78l1.22-2.91l1.3-3.1c-0.05-0.57-0.23-1.27-0.71-1.92
					C64.36,80.13,63.75,79.13,63.24,77.82z"/>
			</g>
			<path class="st14" d="M35.64,154.37c-0.11-0.07-0.21-0.14-0.32-0.21c-0.9-0.59-1.79-0.97-2.67-1.18
				c-2.32-0.55-4.5,0.06-6.33,1.06c-3.02,1.64-5.06,4.29-5.06,4.29l-10.05,17.76l16.22,8.95l1.65-2.55l5.23-8.07l0.85-1.31
				l1.74-2.68C36.89,170.44,42.98,159.58,35.64,154.37z"/>
			<path class="st6" d="M51.67,115.74c-0.72-0.7-1.73-1.42-2.86-1.47c-0.14-0.01-0.27-0.01-0.4,0c-2.01,0.09-3.25,1.46-3.8,1.27
				c-0.59-0.2-2.45-2.74-5.48-4.7c-2.2-1.42-3.06-2.22-3.36-2.55l-0.24-0.05l-6.97-1.31c0.09,0.49,0.19,0.92,0.3,1.26
				c1.37,4.21,0.78,3.23,3.23,5.48c0.6,0.55,1.47,1.12,2.46,1.66c3.04,1.67,7.17,3.16,7.91,3.53c0.98,0.49,0.1,1.08,1.86,3.03
				c0.23,0.25,0.47,0.48,0.71,0.68c1.02,0.82,2.19,1.22,3.24,1.26c0.68,0.02,1.31-0.1,1.82-0.37c1.47-0.78,2.74-6.36,2.74-6.36
				S52.39,116.43,51.67,115.74z"/>
			<path class="st12" d="M37.54,81.79c-0.17-1.59-0.4-2.95-0.64-4.1c-0.36,0.22-0.73,0.45-1.12,0.7c-2.56,1.6-5.54,3.6-6.54,5.26
				c-1.61,2.69-1.75,17.5-0.71,23.21c0.01,0.03,0.01,0.05,0.02,0.08l6.97,1.31c0.01-0.09,0.03-0.19,0.04-0.28
				c0.68-4.86,1.32-9.25,1.32-9.25c0,0,0,0,0,0s0,0,0,0c0.15-2.17,0.36-4.61,0.5-6.25c0.1-1.13,0.17-1.88,0.17-1.88
				s0.01-0.05,0.02-0.13C37.67,89.72,38.25,85.44,37.54,81.79z"/>
			<path class="st10" d="M35.52,108.25l0.24,0.05c-0.12-0.13-0.16-0.19-0.16-0.19s0.01-0.04,0.03-0.09
				c-0.02-0.01-0.05-0.03-0.08-0.04C35.55,108.07,35.53,108.16,35.52,108.25z"/>
			<path class="st11" d="M55.28,92.16l-1.33-0.34H41.33l-3.89,0.65c-0.24,3.48-0.56,6.26-0.56,6.26c0,0,0,0,0,0
				c0,0-0.64,4.38-1.32,9.24c-0.01,0.03-0.01,0.05-0.01,0.06c0,0.03,0.06,0.09,0.06,0.1c0.01,0.02,0.06,0.08,0.14,0.17l0.05,0.06
				l0,0c0.01,0.01,0.02,0.02,0.03,0.03c0.36,0.37,1.25,1.16,3.29,2.48c3.03,1.96,4.89,4.5,5.48,4.7c0.55,0.18,1.79-1.18,3.8-1.27
				l7.76-19.08C55.63,94.16,55.3,93.12,55.28,92.16z"/>
			<path class="st12" d="M54.1,79.35c-0.13-0.33-0.25-0.63-0.36-0.92c-1.98-0.46-4.28-0.81-5.39-1.74c-0.65,0.56-1.75,1.04-3.6,1
				c-2.49-0.05-4.08-1.06-4.99-1.91c-0.01,0.01-0.01,0.02-0.02,0.02c0.85,2.39,1.74,5.41,1.74,7.5c0,3.96-0.15,8.51-0.15,8.51h12.62
				C53.95,91.82,55.71,83.45,54.1,79.35z"/>
			<path class="st15" d="M48.34,76.69c-0.29-0.25-0.51-0.53-0.61-0.87c-0.04-0.13-0.05-0.27-0.07-0.41
				c-0.78,0.47-2.17,1.09-3.95,1.04c-1.85-0.05-2.99-1.01-3.55-1.67c-0.1,0.42-0.21,0.76-0.36,0.94c-0.01,0.02-0.04,0.04-0.06,0.06
				c0.9,0.85,2.49,1.86,4.99,1.91C46.59,77.73,47.69,77.25,48.34,76.69z"/>
			<path class="st9" d="M53.95,91.82c0,0,0.64-11.59-0.21-13.39c1.16,0,1.96,0.57,1.96,0.57s0.26,5.6,0,8.54
				c-0.26,2.94-0.41,4.62-0.41,4.62L53.95,91.82z"/>
			<path class="st6" d="M31.56,184.43c-0.11,1.56-0.25,3.61-0.25,3.61s-1.09,2.18-1.22,3.59c0.55,0.73,1.55,1.55,3.31,1.8
				c3.39,0.47,10.14,0.2,11-0.64c0.26-0.25,0.46-0.47,0.63-0.65c-2.04-1.05-7.73-2.8-8.13-3.63c-0.45-0.94-0.04-3.51-0.04-3.51
				l0.38-0.88l-5.45,0.3L31.56,184.43z"/>
			<path class="st9" d="M33.39,193.42c-1.76-0.24-2.76-1.06-3.31-1.8c-0.01,0.15-0.02,0.3-0.01,0.43c0.11,1.34,1.6,2.78,5.07,3.28
				s7.23,0.27,8.98-0.2c1.75-0.47,2.61-1.67,1.45-2.64c-0.12-0.1-0.32-0.22-0.56-0.35c-0.17,0.18-0.37,0.4-0.63,0.65
				C43.53,193.62,36.79,193.89,33.39,193.42z"/>
			<path class="st8" d="M42.51,174.93c-2.84-0.11-5.74-0.27-8.2-0.5l-5.23,8.07v2.58l3.49-0.21l0.3-0.02l7.15-0.44l2.2-0.13
				l0.44-8.22L42.51,174.93z"/>
			<path class="st6" d="M47.62,74.85c0-0.32,0.02-0.65,0.06-1c-1.19,0.11-2.9,0.12-4.32-0.45c-1.29-0.51-2.23-1.44-2.83-2.2
				c-0.04,0.97-0.12,2.11-0.27,3.02c-0.03,0.16-0.05,0.31-0.08,0.45c-0.01,0.04-0.01,0.07-0.02,0.11c0.56,0.66,1.69,1.62,3.55,1.67
				c1.78,0.05,3.17-0.58,3.95-1.04c-0.02-0.13-0.03-0.27-0.03-0.42C47.63,74.95,47.63,74.9,47.62,74.85z"/>
			<path class="st16" d="M43.37,73.4c1.42,0.56,3.13,0.55,4.32,0.45c0.02-0.2,0.04-0.39,0.08-0.59c-0.82,0.01-4.6-0.1-7.19-2.89
				c-0.01,0.25-0.02,0.54-0.03,0.83C41.14,71.97,42.08,72.89,43.37,73.4z"/>
			<path class="st17" d="M48.55,56.23c0,0-5.71,6.52-8.07,8c-2.36,1.48-2.87,1.47-2.87,1.47l-0.93,0.12c0,0-0.9-1.85-1.3-4.87
				s1.25-9.94,4.5-10.74s8.48-1.55,10.74,0.05c1.09-0.07,2.12,1.66,2.71,2.82c0.59,1.16,1.03,3.7,1.15,5.72
				c0.12,2.03-0.15,4.31-0.59,5.47c-0.43,1.15-1.52,2.88-1.52,2.88s1.16-4.21,0.41-6.6C52.02,58.19,48.55,56.23,48.55,56.23z"/>
			<path class="st18" d="M62.46,101.73l-0.25-0.49c0,0-0.06-0.13-0.15-0.4c-0.01,0.16-0.02,0.27-0.04,0.33
				C61.92,101.42,62.19,101.56,62.46,101.73z"/>
			<path class="st6" d="M62.02,101.16c-0.03-0.05,0.04-0.17,0.04-0.33c-0.16-0.49-0.39-1.45-0.49-2.97
				c-0.15-2.35,0.32-5.55,0.32-5.55l0.17-0.38c0.08-0.71,0.13-0.99,0.23-1.41l-3.51,8.33c1.01,1.12,2.1,2.1,3.05,2.79
				c0.31,0.23,0.6,0.41,0.88,0.58l-0.25-0.49C62.19,101.56,62.28,101.54,62.02,101.16z"/>
			<path class="st6" d="M62.46,101.73l0.25,0.49c0.06,0.03,0.11,0.07,0.17,0.1C62.91,102.04,62.69,101.87,62.46,101.73z"/>
			<path class="st16" d="M61.57,97.86c0.1,1.52,0.33,2.48,0.49,2.97c0.04-1.15-0.3-4.79-0.04-8.58c0.01-0.11,0.03-0.22,0.04-0.33
				l-0.17,0.38C61.89,92.31,61.42,95.51,61.57,97.86z"/>
		</g>
	</g>
	<g>
		<path class="st19" d="M162.18,142.76h-12.21c0,0-0.34,16.87,2.54,24.89c0,0.15,1.59,0.79,3.56,0.79s3.57-0.64,3.57-0.79
			C162.24,160.8,162.18,142.76,162.18,142.76z"/>
		<path class="st20" d="M156.41,135.09c0,0-1.95,0.93-2.92-0.35c-0.97-1.28-0.4-2.83-1.49-3.84s-3.27-0.98-4.14-2.48
			c-0.86-1.5-1.73-3.61-0.86-4.25c0.86-0.64,5.21-0.11,6.49,2.56C154.79,129.39,157.7,132.1,156.41,135.09z"/>
		<path class="st20" d="M157.5,138.07c0,0-0.84-1.67,0.48-2.81c1.32-1.14,2.33-0.26,3.8-0.53s2.07-1.09,3.35-1s2.97,0.03,3.87,1
			s1.47,1.5,1.39,2.66c-0.08,1.17-2.14,1.47-3.95,1.39c-1.8-0.08-2.29-1.47-3.42-1.54c-1.13-0.08-2.14,0.83-3.08,0.98
			S158.56,139.15,157.5,138.07z"/>
		<path class="st20" d="M159.51,131.86c0,0-1.49-0.8-1.73-2.83c-0.24-2.02,0.72-1.68,0.65-3.26s-0.1-2.02-0.1-2.78
			s-0.06-1.47,0.3-1.95s0.42-0.99,1.04-1.2s1.61-0.58,2.71,0.17c1.1,0.75,1.34,1.2,1.44,2.78c0.1,1.58-0.07,2.06-0.48,3.12
			s-0.79,0.75-0.75,2.16c0.03,1.41,0.55,1.1,0.03,2.67s-3.14,1.26-3.14,1.26L159.51,131.86z"/>
		<ellipse class="st21" cx="156.07" cy="142.76" rx="6.1" ry="0.69"/>
		<g>
			<path class="st22" d="M156.03,143.47l-1-0.04c0-0.04,0.02-0.3,0.16-1.25c0.13-0.91,0.44-1.86,0.87-2.75
				c1.17-2.36,2.71-3.51,4.86-3.62c1.38-0.07,1.76-0.14,1.77-0.14l0.19,0.98c-0.04,0.01-0.45,0.08-1.92,0.16
				c-1.19,0.06-2.73,0.47-4.01,3.07c-0.39,0.8-0.66,1.65-0.78,2.45C156.05,143.19,156.03,143.44,156.03,143.47z"/>
			<path class="st22" d="M155.65,141.93l0.37-2.36c0.01-0.05,0.71-4.74-1.24-6.94c-2.09-2.34-4.7-4.4-4.73-4.42l0.62-0.79
				c0.11,0.09,2.71,2.13,4.86,4.54c1.3,1.46,1.61,3.71,1.63,5.41c1.08-2.31,2.56-6.33,2.13-10.45l0.99-0.1
				c0.7,6.68-3.17,12.84-3.34,13.09L155.65,141.93z"/>
		</g>
	</g>
</g>
</svg>
