<?xml version="1.0" encoding="utf-8"?>
<!-- Generator: Adobe Illustrator 23.0.1, SVG Export Plug-In . SVG Version: 6.00 Build 0)  -->
<svg version="1.0" id="Layer_1" xmlns="http://www.w3.org/2000/svg" xmlns:xlink="http://www.w3.org/1999/xlink" x="0px" y="0px"
	 viewBox="0 0 200 200" style="enable-background:new 0 0 200 200;" xml:space="preserve">
<style type="text/css">
	.st0{fill:#E6EFFF;}
	.st1{fill:none;stroke:#D8E5F4;stroke-miterlimit:10;}
	.st2{fill:#C0DCFB;}
	.st3{fill:#D4EEF4;}
	.st4{fill:#2D997A;}
	.st5{fill:#EBC746;}
	.st6{fill:none;stroke:#FFFFFF;stroke-miterlimit:10;}
	.st7{fill:#FFB79F;}
	.st8{fill:#424242;}
	.st9{fill:#2BB5E5;}
	.st10{fill:#473ED2;}
	.st11{fill:#00A28A;}
	.st12{fill:#FF9585;}
	.st13{fill:#FFD31A;}
	.st14{fill:#FBC012;}
	.st15{fill:none;}
	.st16{fill:#D8E5F4;}
	.st17{fill:#62B2A2;}
	.st18{fill:#B0CEEB;}
	.st19{fill:none;stroke:#2D997A;stroke-miterlimit:10;}
	.st20{fill:#F3F3F3;}
	.st21{fill:#2F1EB1;}
</style>
<path class="st0" d="M28.36,174.41c0,0,23.16-16.81,38.89-11.93s54.55,18.96,82.99,15.61s61.39-24.88,42.88-49.98
	s-33.92-31.2-32.76-48.43c1.16-17.23,22.83-29.63,4.77-49.74S108.21,5.8,82.96,22.23S39.2,50.38,28.36,50.72
	C17.53,51.05-4.59,41.14,3.54,71.23s38.8,55.45,27.3,69.09S8.83,180.72,28.36,174.41z"/>
<path class="st1" d="M42.7,168.35c0,0-24.04,11.51-27.42,0s19.28-35.11,18.27-49.38c-1.01-14.27-28.44-34-30.01-47.73
	s1.58-20.03,8.01-23.75c6.43-3.72,38.59-0.61,63.63-7.78s60.62-30.61,74.83-22.76s28.78,22.96,24.04,39.61s-16.2,22.75-13.69,34.26
	c2.51,11.51,30.95,25.5,32.64,48.3s-15.57,37.89-33.85,39.49c-18.28,1.59-74.78-22.84-89.71-21.94
	C54.51,157.57,42.7,168.35,42.7,168.35z"/>
<path class="st2" d="M30.84,23.29v46.11c0,4.08,3.41,7.34,7.49,7.15l85.89-3.95c3.82-0.18,6.83-3.32,6.83-7.15V8.16
	c0-4.45-4.02-7.82-8.4-7.05L36.76,16.24C33.33,16.85,30.84,19.82,30.84,23.29z"/>
<g>
	<path class="st3" d="M106.02,36.72c11.51-0.5,18.31,0.8,22.32,2.39V10.66c0-4.18-3.75-7.36-7.88-6.68L39.21,17.43
		c-3.27,0.54-5.67,3.37-5.67,6.68v44.64c0,3.89,3.27,6.98,7.15,6.76l22.15-1.23C67.5,65.67,84.25,37.68,106.02,36.72z"/>
	<path class="st4" d="M128.34,39.11c-4.02-1.59-10.82-2.89-22.32-2.39C84.25,37.68,67.5,65.67,62.85,74.28l59.1-3.29
		c3.59-0.2,6.4-3.17,6.4-6.76V39.11z"/>
	<circle class="st5" cx="48.69" cy="32.43" r="9.93"/>
	<line class="st6" x1="62.85" y1="34.01" x2="80.94" y2="21.6"/>
	<line class="st6" x1="71.96" y1="31.14" x2="84.61" y2="21.21"/>
</g>
<path class="st7" d="M54.14,194.47c0.96,0.19,1.82,0.19,2.57,0.11c-0.27-0.2-0.56-0.41-0.88-0.6c-1.39-0.85-2.95-2.59-2.95-2.59
	l-0.48-0.9l1.39-5.37h-4.67v0.55v3.73c0,0-0.52,0.54-0.94,1.07C49.44,191.77,51.89,194.02,54.14,194.47z"/>
<path class="st8" d="M56.71,194.57c-0.74,0.09-1.61,0.08-2.57-0.11c-2.26-0.45-4.71-2.7-5.96-4c-0.23,0.29-0.43,0.57-0.5,0.77
	c-0.2,0.55,0,0.99,0,0.99s3.33,3.93,6.51,4.28c3.18,0.35,3.98-0.6,3.98-0.6S57.61,195.26,56.71,194.57z"/>
<path class="st7" d="M61.69,198.88c0.96,0.19,1.82,0.19,2.57,0.11c-0.27-0.2-0.56-0.41-0.88-0.6c-1.39-0.85-2.95-2.59-2.95-2.59
	l-0.48-0.9l1.39-5.37h-4.67v0.55v3.73c0,0-0.52,0.54-0.94,1.07C56.98,196.18,59.43,198.44,61.69,198.88z"/>
<path class="st8" d="M64.26,198.99c-0.74,0.09-1.61,0.08-2.57-0.11c-2.26-0.45-4.71-2.7-5.96-4c-0.23,0.29-0.43,0.57-0.5,0.77
	c-0.2,0.55,0,0.99,0,0.99s3.33,3.93,6.51,4.28c3.18,0.35,3.98-0.6,3.98-0.6S65.15,199.68,64.26,198.99z"/>
<path class="st9" d="M79.4,88.17c-0.16,0.46-0.35,0.92-0.59,1.35c-0.35,0.63-0.8,1.43-1.27,2.3c-0.35,1.29-0.71,2.36-1.08,2.97
	c-0.68,1.12-1.31,2.28-1.83,3.27c-0.32,0.89-0.55,1.72-0.64,2.42c-0.19,0.03-0.41,0.07-0.64,0.1l0,0l0.04,6.91
	c0,0,0.81,9.6,0.91,13.72c0.1,4.13-3.08,26.53-4.16,30.88c-1.07,4.35-2.89,4.8-2.89,4.8l5.62-0.57c0,0,1.15-1.49,2.05-3.77
	c0.89-2.29,3.32-20.7,3.07-25.51c-0.25-4.8-1.66-20.93-0.59-27.11C77.89,97.1,78.68,92.42,79.4,88.17z"/>
<path class="st8" d="M59.35,106.55c3.78,0.28,12.46-1.88,15.19-2.6c0.01-0.94,0.02-1.72,0.05-2.37c0-0.11,0.02-0.24,0.03-0.36
	c-3.69,0.65-13.46,2.28-16.74,1.83c-2.86-0.4-4.61-2.3-5.41-3.39c0.2,1.31,0.35,2.53,0.44,3.67
	C54.11,104.52,56.36,106.33,59.35,106.55z"/>
<path class="st7" d="M75.38,64.91c2.93-3.61,2.26-9.93,2.26-9.93s-1.24-0.79-3.61-2.82c0.76,2.12,0,2.62,0,2.62l-1.27,3.47
	c0,0-0.51-1.95-1.02-3.22c-0.51-1.27-2.88-1.44-3.89,1.61c-1.02,3.05,1.44,3.64,1.44,5.33s-2.03,4.29-2.03,4.29l1.35,2.26
	C68.61,68.52,72.44,68.52,75.38,64.91z"/>
<path class="st9" d="M46.9,145.71c0.34,1.83-1.58,8.01-1.58,8.01s1.18-0.28,2.93-0.62C47.91,150.85,47.4,148.34,46.9,145.71
	C46.9,145.71,46.9,145.71,46.9,145.71z"/>
<path class="st10" d="M67.25,66.26c0,0,2.03-2.6,2.03-4.29s-2.45-2.29-1.44-5.33c1.02-3.05,3.39-2.88,3.89-1.61
	c0.51,1.27,1.02,3.22,1.02,3.22l1.27-3.47c0,0,0.76-0.51,0-2.62c2.37,2.03,3.61,2.82,3.61,2.82l1.04,0.92v-1.44
	c0,0-0.42-4.84-2.2-7.97c-1.57-2.76-5.24-4.2-9.51-4.62c0.71,1,1.13,2.21,1.13,3.52c0,3.37-2.73,6.1-6.1,6.1
	c-2.85,0-5.24-1.96-5.9-4.6c-0.98,1.7-1.68,3.86-1.97,6.54c-0.93,8.63,5.56,13.74,5.56,13.74l3.75,0.48
	C63.44,67.65,65.47,68.1,67.25,66.26z"/>
<path class="st7" d="M97.66,49.6c-0.68-7.02-2.71-12.39-2.48-13.75c0.23-1.35,1.13-1.35,1.47-6.88s-2.6-7.22-5.18-6.88
	c-2.58,0.34-3.51,6.66-3.17,9.82c0.34,3.16,3.05,3.61,3.16,4.85c0.11,1.24-0.56,6.09-0.79,11.96c-0.23,5.87,0.9,11.28-1.58,13.09
	c-1.08,0.79-3.48,2.47-6.13,4.29c1.07,0.65,2.34,1.57,3.08,2.6c0.88,1.22,1.51,3,1.88,4.24c4.68-4.31,9.04-8.37,9.74-9.77
	C99.13,60.23,98.34,56.62,97.66,49.6z"/>
<path class="st11" d="M74.54,103.95c-2.73,0.71-11.41,2.88-15.19,2.6c-2.99-0.22-5.25-2.03-6.44-3.22c0.23,3.1-0.02,5.58-1.04,7.57
	c-0.13,0.25-0.27,0.5-0.42,0.73c-0.77,1.17-1.82,3.33-2.84,6.02c0.64,0.45,1.38,0.9,2.23,1.33c2.24,1.12,5.2,2.05,8.97,2.13
	c6.47,0.14,11.94-1.22,15.05-2.23C74.6,111.83,74.52,107.05,74.54,103.95z"/>
<path class="st8" d="M60.82,79.5c3.31,0.19,7.36-4.1,9.26-6.36l-0.63-1.98c-1.71,1.92-5.88,6.2-8.46,5.54
	c-1.65-0.42-2.42-1.65-2.79-2.77c-0.56,0.33-1.33,0.74-2.16,1.2C56.79,77.05,58.22,79.35,60.82,79.5z"/>
<path class="st12" d="M68.61,68.52l-1.35-2.26c-0.2,0.21-0.4,0.38-0.6,0.53l2.4,3.1L68.61,68.52z"/>
<path class="st7" d="M66.63,66.81c-1.6,1.19-3.19,0.84-3.19,0.84l-3.75-0.48c0,0,0.34,5.19-0.68,6.21
	c-0.15,0.15-0.45,0.34-0.81,0.56c0.36,1.12,1.14,2.34,2.79,2.77c2.58,0.66,6.75-3.63,8.46-5.54l-0.4-1.24
	C68.3,68.96,67.31,67.68,66.63,66.81z"/>
<path class="st7" d="M69.04,69.9l-2.4-3.1c0,0-0.01,0.01-0.01,0.01c0.67,0.88,1.67,2.15,2.42,3.11L69.04,69.9z"/>
<path class="st13" d="M74.87,119.36c-0.01-0.17-0.01-0.32-0.02-0.48c-3.11,1.01-8.57,2.38-15.05,2.23
	c-3.77-0.08-6.73-1.01-8.97-2.13c-0.85-0.43-1.59-0.88-2.23-1.33c-1.83,4.82-3.54,11.35-3.25,17c0.19,3.61,0.85,7.43,1.54,11.05
	c0.5,2.63,1.01,5.15,1.35,7.4c0.34,2.21,0.52,4.16,0.37,5.69c-0.51,5.25-1.86,10.83-1.35,17.27s0.85,11.34,0.85,11.34h5.59
	c-0.7-4.2-1.66-10.21-1.72-12.12c-0.1-3.05,2.52-16.53,2.52-17.72c0-1.18-2.52-18.45-2.52-18.45s4.05,18.9,3.48,19.69
	c-0.56,0.79-2.48,12.41-2.82,15.57c-0.22,2.02,0.58,8.57,1.19,13.02h0.03c0.42,2.11,0.74,3.44,0.74,3.44h7.45
	c0,0,7.45-27.76,8.8-33.4c0.18-0.75,0.39-1.8,0.61-3.08C72.95,145.97,75.16,127.59,74.87,119.36z"/>
<path class="st14" d="M52.65,174.38c0.34-3.16,2.26-14.78,2.82-15.57c0.56-0.79-3.48-19.69-3.48-19.69s2.52,17.27,2.52,18.45
	c0,1.18-2.62,14.67-2.52,17.72c0.06,1.91,1.02,7.92,1.72,12.12h0.13C53.23,182.95,52.43,176.41,52.65,174.38z"/>
<path class="st15" d="M76.8,95.62c0.33-0.6,0.65-1.66,0.96-2.93c-0.91,1.89-1.94,4.18-2.57,6.15C75.64,97.86,76.2,96.72,76.8,95.62z
	"/>
<path class="st15" d="M79.67,81.16l1.11-1.35C80.3,80.34,79.92,80.79,79.67,81.16z"/>
<path class="st11" d="M79.96,85.35c-0.17,1.16-0.36,2.42-0.56,3.73C79.77,87.91,79.93,86.65,79.96,85.35z"/>
<path class="st11" d="M77.76,92.69c1.06-4.43,1.91-11.53,1.91-11.53c0.25-0.37,0.64-0.83,1.11-1.35l0.02-0.02c0,0,0,0,0,0
	c2.28-2.51,6.78-6.62,11.03-10.53c-0.37-1.24-1-3.02-1.88-4.24c-0.75-1.03-2.01-1.95-3.08-2.6c-3.43,2.36-7.28,4.95-9.15,6.1
	c-3.32,2.03-7.52,4.97-7.52,4.97l-0.11-0.35c-1.89,2.26-5.94,6.55-9.26,6.36c-2.59-0.15-4.03-2.44-4.77-4.36
	c-2.2,1.23-4.81,2.86-5.16,4.67c-0.56,2.93-0.19,10.04,1.09,16.93c0.19,1.02,0.36,2,0.5,2.93c0.79,1.09,2.55,3,5.41,3.39
	c3.12,0.43,12.14-1.03,16.17-1.73c0,0,0.45-1.06,1.12-2.49C75.81,96.87,76.85,94.58,77.76,92.69z"/>
<path class="st16" d="M79.67,81.16c0.2,1.38,0.32,2.8,0.29,4.19c0.48-3.2,0.83-5.54,0.83-5.56c-0.01,0.01-0.01,0.01-0.02,0.02
	L79.67,81.16z"/>
<path class="st11" d="M75.18,98.84c-0.67,1.42-1.12,2.48-1.12,2.49c0.2-0.03,0.39-0.07,0.56-0.1
	C74.69,100.54,74.9,99.72,75.18,98.84z"/>
<path class="st16" d="M80.78,79.81c0.01-0.01,0.01-0.01,0.02-0.02c0,0,0,0,0,0L80.78,79.81z"/>
<path class="st11" d="M79.67,81.16c0,0-0.84,7.09-1.91,11.53c0.42-0.86,0.81-1.65,1.12-2.27c0.21-0.43,0.38-0.87,0.52-1.33
	c0.2-1.31,0.39-2.57,0.56-3.73C79.99,83.96,79.86,82.54,79.67,81.16z"/>
<g>
	<path class="st2" d="M140.07,128.75h-30.13c0,0-0.85,41.64,6.26,61.44c0,0.36,3.93,1.95,8.79,1.95c4.86,0,8.82-1.59,8.82-1.95
		C140.24,173.26,140.07,128.75,140.07,128.75z"/>
	<path class="st17" d="M125.85,109.8c0,0-4.81,2.3-7.2-0.87c-2.39-3.17-1-6.98-3.69-9.48s-8.08-2.41-10.21-6.13
		c-2.13-3.71-4.27-8.91-2.13-10.49c2.13-1.58,12.85-0.28,16.03,6.31C121.83,95.74,129.03,102.43,125.85,109.8z"/>
	<path class="st17" d="M128.53,117.16c0,0-2.06-4.12,1.18-6.93c3.25-2.8,5.75-0.64,9.37-1.3c3.62-0.66,5.11-2.7,8.26-2.47
		c3.16,0.23,7.33,0.07,9.56,2.47c2.23,2.4,3.62,3.7,3.43,6.58c-0.19,2.88-5.29,3.62-9.75,3.43s-5.66-3.62-8.45-3.81
		c-2.78-0.19-5.29,2.04-7.61,2.41C132.23,117.92,131.16,119.84,128.53,117.16z"/>
	<path class="st17" d="M133.49,101.84c0,0-3.67-1.99-4.26-6.98s1.78-4.15,1.61-8.04c-0.17-3.89-0.25-4.99-0.25-6.86
		s-0.15-3.64,0.73-4.82s1.05-2.45,2.57-2.96c1.52-0.51,3.98-1.44,6.69,0.42s3.31,2.96,3.56,6.86s-0.18,5.08-1.19,7.7
		c-1.02,2.62-1.95,1.86-1.86,5.33c0.08,3.47,1.35,2.71,0.08,6.6s-7.74,3.11-7.74,3.11L133.49,101.84z"/>
	<ellipse class="st18" cx="125" cy="128.75" rx="15.07" ry="1.69"/>
	<g>
		<path class="st19" d="M123.67,130.44c0,0,0.02-0.55,0.37-2.96c0.3-2.06,0.99-4.28,2.04-6.42c3.25-6.59,7.33-8.08,10.95-8.26
			c3.62-0.19,4.55-0.37,4.55-0.37"/>
		<path class="st19" d="M110.88,91.86c0,0,6.54,5.12,11.83,11.06c5.29,5.94,3.37,18.13,3.37,18.13s9.75-15.29,8.05-31.54"/>
	</g>
</g>
<path class="st20" d="M139.52,62.85c0,0-1.85,3.43-5.19,3.6c3.4,0,5.19,4.3,5.19,4.3s1.33-3.96,3.28-4.3
	C141.01,65.89,140.4,65.36,139.52,62.85z"/>
<g>
	<path class="st20" d="M47.35,101.34c0,0-1.85,3.43-5.19,3.6c3.4,0,5.19,4.3,5.19,4.3s1.33-3.96,3.28-4.3
		C48.85,104.38,48.23,103.85,47.35,101.34z"/>
</g>
<path class="st20" d="M165.55,141.75c0,0-1.85,3.43-5.19,3.6c3.4,0,5.19,4.3,5.19,4.3s1.33-3.96,3.28-4.3
	C167.05,144.79,166.43,144.26,165.55,141.75z"/>
<path class="st21" d="M67.69,41.77C66.5,40.1,64.54,39,62.33,39c-3.63,0-6.58,2.94-6.58,6.58c0,0.56,0.08,1.1,0.21,1.61
	c0.72,2.85,3.29,4.96,6.37,4.96c3.63,0,6.58-2.94,6.58-6.58C68.91,44.16,68.45,42.85,67.69,41.77z"/>
</svg>
