<?xml version="1.0" encoding="utf-8"?>
<!-- Generator: Adobe Illustrator 23.0.1, SVG Export Plug-In . SVG Version: 6.00 Build 0)  -->
<svg version="1.0" id="Layer_1" xmlns="http://www.w3.org/2000/svg" xmlns:xlink="http://www.w3.org/1999/xlink" x="0px" y="0px"
	 viewBox="0 0 200 200" style="enable-background:new 0 0 200 200;" xml:space="preserve">
<style type="text/css">
	.st0{fill:#E6EFFF;}
	.st1{fill:#D8E5F4;}
	.st2{fill:#FFB9A9;}
	.st3{fill:#E98199;}
	.st4{fill:#1897F6;}
	.st5{fill:#FF804C;}
	.st6{fill:#B0CEEB;}
	.st7{fill:#2D997A;}
	.st8{fill:#8553FF;}
	.st9{fill:#A78DFF;}
	.st10{fill:#CB8F8F;}
	.st11{fill:#FFFFFF;}
</style>
<g>
	<g>
		<path class="st0" d="M28.35,161.86c0,0,22.95-15.28,38.55-10.84s54.08,17.24,82.26,14.19c28.19-3.05,60.85-22.61,42.51-45.43
			s-33.62-28.36-32.47-44.02c1.15-15.66,22.63-26.93,4.73-45.21S107.5,8.62,82.47,23.55S39.09,49.14,28.35,49.44
			S-4.31,40.73,3.74,68.09s38.47,50.4,27.06,62.79S8.98,167.59,28.35,161.86z"/>
		<path class="st1" d="M156.16,166.24c-10.32,0-29.29-5.53-47.67-10.89c-16.75-4.88-32.57-9.51-39.39-9.12
			c-14.46,0.8-26.11,10.4-26.22,10.5l-0.12,0.07c-0.67,0.29-16.54,7.18-24.2,3.73c-1.83-0.83-3.06-2.18-3.66-4.03
			c-1.79-5.56,3.24-13.77,8.56-22.46c4.92-8.04,10.01-16.35,9.53-22.53c-0.5-6.46-7.89-14.42-15.04-22.12
			C10.79,81.68,4.02,74.4,3.24,68.15c-1.45-11.66,1-18.27,8.2-22.09c2.84-1.51,10.03-1.8,19.98-2.21c12.96-0.53,29.1-1.2,43.21-4.9
			c8.58-2.25,18.58-6.35,28.24-10.3c18.97-7.77,36.89-15.11,46.29-10.34c14.13,7.16,28.91,21.04,24.08,36.6
			c-2.07,6.67-5.38,11.44-8.3,15.65c-3.69,5.33-6.61,9.53-5.26,15.22c0.95,3.99,5.9,8.43,11.63,13.57
			c8.78,7.88,19.71,17.68,20.74,30.4c0.71,8.73-1.85,16.8-7.4,23.32c-6.38,7.49-16.08,12.27-26.62,13.11
			C157.45,166.22,156.82,166.24,156.16,166.24z M69.91,145.21c7.37,0,22.69,4.46,38.86,9.18c19.47,5.68,39.61,11.53,49.19,10.78
			c10.28-0.82,19.73-5.47,25.93-12.76c5.37-6.31,7.85-14.12,7.17-22.59c-1-12.32-11.76-21.98-20.41-29.74
			c-5.86-5.26-10.92-9.79-11.94-14.08c-1.46-6.12,1.72-10.71,5.41-16.02c2.88-4.15,6.14-8.86,8.17-15.38
			c4.64-14.96-9.8-28.43-23.58-35.41c-9-4.56-27.54,3.03-45.46,10.38c-9.69,3.97-19.71,8.07-28.36,10.34
			c-14.21,3.73-30.4,4.4-43.42,4.93c-9.45,0.39-16.91,0.7-19.55,2.1c-6.86,3.64-9.09,9.75-7.68,21.08
			c0.74,5.93,7.71,13.43,14.44,20.69c7.27,7.82,14.78,15.91,15.31,22.72c0.5,6.5-4.67,14.96-9.68,23.13
			c-5.2,8.49-10.1,16.51-8.46,21.63c0.51,1.59,1.53,2.71,3.12,3.43c7.03,3.17,22.23-3.24,23.33-3.71
			c0.92-0.75,12.49-9.89,26.75-10.68C69.32,145.22,69.61,145.21,69.91,145.21z"/>
	</g>
	<path class="st2" d="M101.76,140.44c0,0-18.2,2.48-34.23,0.67s-36.04-4.15-48.11,7.08c-12.07,11.22,14.59,46.62,53.69,38.97
		s39.46-9.06,57.66-4.25s76.22,0,60.54-29.17S124.1,133.64,101.76,140.44z"/>
	<ellipse class="st3" cx="39.72" cy="147.46" rx="6.87" ry="2.57"/>
	<g>
		<path class="st4" d="M40.87,126.05H30.7c0,0-0.29,14.06,2.12,20.75c0,0.12,1.33,0.66,2.97,0.66c1.64,0,2.98-0.54,2.98-0.66
			C40.93,141.08,40.87,126.05,40.87,126.05z"/>
		<path class="st5" d="M36.07,119.65c0,0-1.62,0.78-2.43-0.29s-0.34-2.36-1.25-3.2c-0.91-0.85-2.73-0.81-3.45-2.07
			c-0.72-1.25-1.44-3.01-0.72-3.54c0.72-0.53,4.34-0.09,5.41,2.13S37.14,117.16,36.07,119.65z"/>
		<path class="st5" d="M36.98,122.14c0,0-0.7-1.39,0.4-2.34c1.1-0.95,1.94-0.22,3.17-0.44c1.22-0.22,1.72-0.91,2.79-0.83
			c1.07,0.08,2.48,0.02,3.23,0.83c0.75,0.81,1.22,1.25,1.16,2.22c-0.06,0.97-1.79,1.22-3.29,1.16c-1.5-0.06-1.91-1.22-2.85-1.29
			c-0.94-0.06-1.79,0.69-2.57,0.81C38.22,122.39,37.86,123.04,36.98,122.14z"/>
		<path class="st5" d="M38.65,116.96c0,0-1.24-0.67-1.44-2.36c-0.2-1.69,0.6-1.4,0.54-2.72c-0.06-1.31-0.09-1.69-0.09-2.32
			s-0.05-1.23,0.25-1.63c0.3-0.4,0.35-0.83,0.87-1c0.51-0.17,1.34-0.49,2.26,0.14c0.91,0.63,1.12,1,1.2,2.32
			c0.08,1.31-0.06,1.71-0.4,2.6c-0.34,0.89-0.66,0.63-0.63,1.8c0.03,1.17,0.46,0.91,0.03,2.23c-0.43,1.31-2.61,1.05-2.61,1.05
			L38.65,116.96z"/>
		<ellipse class="st6" cx="35.79" cy="126.05" rx="5.09" ry="0.57"/>
		<g>
			<path class="st7" d="M35.83,126.65l-1-0.04c0,0,0.01-0.2,0.13-1.05c0.11-0.77,0.37-1.57,0.74-2.32c0.97-1.97,2.32-2.98,4.12-3.07
				c1.14-0.06,1.46-0.12,1.47-0.12l0.19,0.98c-0.04,0.01-0.38,0.07-1.61,0.13c-0.97,0.05-2.23,0.38-3.28,2.51
				c-0.32,0.66-0.54,1.35-0.64,2.02C35.85,126.41,35.84,126.62,35.83,126.65z"/>
			<path class="st7" d="M35.29,125.74l0.37-2.36c0.01-0.04,0.59-3.91-1.02-5.71c-1.74-1.95-3.91-3.66-3.93-3.67l0.62-0.79
				c0.09,0.07,2.27,1.78,4.06,3.8c1.01,1.13,1.31,2.83,1.37,4.21c0.88-1.96,1.95-5.11,1.62-8.35l0.99-0.1
				c0.58,5.6-2.66,10.75-2.8,10.97L35.29,125.74z"/>
		</g>
	</g>
	<path class="st8" d="M146.32,95.44H76.97c-1.51,0-2.89,0.53-3.98,1.41h0l-0.01,0.01c-0.33,0.27-0.64,0.57-0.91,0.9l-3.78,3.75
		l2.36-0.08c-0.01,0.12-0.02,0.24-0.02,0.36v35.38c0,1.15,0.93,2.08,2.08,2.08h77.88c1.15,0,2.08-0.93,2.08-2.08v-35.38
		C152.66,98.28,149.82,95.44,146.32,95.44z"/>
	<path class="st9" d="M145.28,143.28H69.93c-1.85,0-3.34-1.5-3.34-3.34v-30.27c0-5.63,4.57-10.2,10.2-10.2h61.64
		c5.63,0,10.2,4.57,10.2,10.2v30.27C148.63,141.79,147.13,143.28,145.28,143.28z"/>
	<path class="st10" d="M138.45,111.84c0,0,0.57-0.65,1.91-0.7"/>
	<g>
		<g>
			<g>
				<path class="st8" d="M66.52,117.16c0-0.42-0.12-0.81-0.32-1.14l0.01,0l-0.01,0c-0.4-0.67-1.12-1.12-1.96-1.12h-8.6
					c-0.55,0-1.04,0.2-1.44,0.52l-0.02,0c0,0-4.74,2.76-6.45,3.99c0.19-0.12,0.57-0.18,0.57-0.18c0.11-0.04,0.47-0.12,0.47-0.12
					s2.18-0.28,4.57-0.28v25.48c0,1.25,1.02,2.27,2.29,2.27h3.88c-0.25,1.43-1.42,3.77-1.42,3.77l6.82-3.89
					c0.38-0.12,0.71-0.32,0.98-0.59l0.01-0.01l0,0c0.39-0.41,0.63-0.95,0.63-1.56V117.16z"/>
			</g>
		</g>
	</g>
	<path class="st9" d="M55.64,150.47h-4.61c-2.37,0-4.29-1.92-4.29-4.29v-23.11c0-2.37,1.92-4.29,4.29-4.29h4.61
		c2.37,0,4.29,1.92,4.29,4.29v23.11C59.93,148.55,58.01,150.47,55.64,150.47z"/>
	<g>
		<g>
			<g>
				<path class="st8" d="M163.06,117.35c0-0.42-0.16-0.8-0.42-1.14l0.01,0l-0.01,0c-0.52-0.66-1.46-1.12-2.55-1.12h-11.17
					c-0.71,0-1.35,0.2-1.87,0.51l-0.02,0c0,0-6.07,2.55-8.29,3.77c0.25-0.12,0.47-0.22,0.47-0.22c0.14-0.04,0.55-0.14,0.55-0.14
					s3.07-0.01,6.19-0.01v25.33c0,1.25,1.33,2.26,2.97,2.26h5.03c-0.32,1.43-0.74,3.48-0.74,3.48l7.75-3.6
					c0.49-0.11,0.92-0.31,1.27-0.59l0.02-0.01l-0.01,0c0.51-0.4,0.82-0.95,0.82-1.55V117.35z"/>
			</g>
			<path class="st8" d="M138.12,119.75c0.14-0.1,0.35-0.23,0.62-0.38C138.5,119.5,138.23,119.64,138.12,119.75z"/>
		</g>
	</g>
	<path class="st8" d="M92.77,124.09H74.43h-2.69c-3.58,0-9.05,5.44-9.05,9.34l1.73,7.02l0.84,3.42c0,1.28,0.95,2.32,2.12,2.32
		l27.94,3.99c1.17,0,3.93-3.42,3.93-4.7v-14.32C99.25,127.26,96.35,124.09,92.77,124.09z"/>
	<path class="st9" d="M93.08,150.47H65.77c-1.85,0-3.34-1.5-3.34-3.34v-8.56c0-5.63,4.57-10.2,10.2-10.2h13.59
		c5.63,0,10.2,4.57,10.2,10.2v8.56C96.42,148.98,94.92,150.47,93.08,150.47z"/>
	<path class="st8" d="M135.33,150.18l-32.41-3.99c-1.36,0-2.46-1.04-2.46-2.32l-2.98-10.44c0-3.91,6.35-9.34,10.5-9.34h24.4
		c4.15,0,7.52,3.17,7.52,7.07v14.32C139.89,146.76,136.69,150.18,135.33,150.18z"/>
	<path class="st9" d="M133.26,150.47h-32.75c-1.85,0-3.34-1.5-3.34-3.34v-8.56c0-5.63,4.57-10.2,10.2-10.2h19.04
		c5.63,0,10.2,4.57,10.2,10.2v8.56C136.6,148.98,135.11,150.47,133.26,150.47z"/>
	<path class="st9" d="M150.22,150.47h-8.54c-2.37,0-4.29-1.92-4.29-4.29v-22.92c0-2.37,1.92-4.29,4.29-4.29h8.54
		c2.37,0,4.29,1.92,4.29,4.29v22.92C154.51,148.55,152.59,150.47,150.22,150.47z"/>
	<ellipse class="st3" cx="172.22" cy="147.14" rx="6.87" ry="2.57"/>
	<path class="st11" d="M153.25,97.95c-2.67,1.11-2.63,4.55-2.63,4.55s-0.31-3.44-3.08-4.3c1.97-1.16,2.9-4.3,2.9-4.3
		S150.57,96.84,153.25,97.95z"/>
	<path class="st11" d="M50.58,136.5c-2.67,1.11-2.63,4.55-2.63,4.55s-0.31-3.44-3.08-4.3c1.97-1.16,2.9-4.3,2.9-4.3
		S47.91,135.4,50.58,136.5z"/>
	<path class="st11" d="M152.9,150.22c-2.67,1.11-2.63,4.55-2.63,4.55s-0.31-3.44-3.08-4.3c1.97-1.16,2.9-4.3,2.9-4.3
		S150.23,149.12,152.9,150.22z"/>
	<g>
		<path class="st4" d="M173.78,127.33H163.6c0,0-0.29,14.06,2.12,20.75c0,0.12,1.33,0.66,2.97,0.66s2.98-0.54,2.98-0.66
			C173.84,142.37,173.78,127.33,173.78,127.33z"/>
		<path class="st5" d="M168.98,120.94c0,0-1.62,0.78-2.43-0.29c-0.81-1.07-0.34-2.36-1.25-3.2c-0.91-0.85-2.73-0.82-3.45-2.07
			c-0.72-1.25-1.44-3.01-0.72-3.54c0.72-0.53,4.34-0.09,5.41,2.13C167.62,116.19,170.05,118.45,168.98,120.94z"/>
		<path class="st5" d="M169.88,123.42c0,0-0.7-1.39,0.4-2.34c1.1-0.95,1.94-0.22,3.17-0.44c1.22-0.22,1.72-0.91,2.79-0.83
			c1.07,0.08,2.48,0.02,3.23,0.83c0.75,0.81,1.22,1.25,1.16,2.22s-1.79,1.22-3.29,1.16c-1.5-0.06-1.91-1.22-2.85-1.29
			s-1.79,0.69-2.57,0.82C171.13,123.68,170.77,124.32,169.88,123.42z"/>
		<path class="st5" d="M171.56,118.24c0,0-1.24-0.67-1.44-2.36c-0.2-1.69,0.6-1.4,0.54-2.72c-0.06-1.31-0.09-1.69-0.09-2.32
			s-0.05-1.23,0.25-1.63c0.3-0.4,0.35-0.83,0.87-1c0.51-0.17,1.34-0.49,2.26,0.14c0.91,0.63,1.12,1,1.2,2.32
			c0.08,1.31-0.06,1.71-0.4,2.6c-0.34,0.89-0.66,0.63-0.63,1.8c0.03,1.17,0.46,0.91,0.03,2.23c-0.43,1.31-2.61,1.05-2.61,1.05
			L171.56,118.24z"/>
		<ellipse class="st6" cx="168.69" cy="127.33" rx="5.09" ry="0.57"/>
		<g>
			<path class="st7" d="M168.74,127.93l-1-0.04c0,0,0.01-0.2,0.13-1.05c0.11-0.77,0.37-1.57,0.74-2.32
				c0.97-1.97,2.32-2.98,4.12-3.07c1.14-0.06,1.46-0.12,1.47-0.12l0.19,0.98c-0.04,0.01-0.38,0.07-1.61,0.13
				c-0.97,0.05-2.22,0.38-3.28,2.51c-0.32,0.66-0.54,1.35-0.64,2.02C168.76,127.69,168.74,127.9,168.74,127.93z"/>
			<path class="st7" d="M168.19,127.02l0.37-2.36c0.01-0.04,0.59-3.91-1.02-5.71c-1.74-1.95-3.91-3.66-3.93-3.67l0.62-0.79
				c0.09,0.07,2.26,1.78,4.06,3.8c1.01,1.13,1.31,2.83,1.37,4.21c0.88-1.96,1.95-5.11,1.62-8.35l0.99-0.1
				c0.58,5.6-2.66,10.75-2.79,10.97L168.19,127.02z"/>
		</g>
	</g>
</g>
</svg>
