<?xml version="1.0" encoding="utf-8"?>
<!-- Generator: Adobe Illustrator 23.0.1, SVG Export Plug-In . SVG Version: 6.00 Build 0)  -->
<svg version="1.0" id="Layer_1" xmlns="http://www.w3.org/2000/svg" xmlns:xlink="http://www.w3.org/1999/xlink" x="0px" y="0px"
	 viewBox="0 0 200 200" style="enable-background:new 0 0 200 200;" xml:space="preserve">
<style type="text/css">
	.st0{fill:#73C0EB;}
	.st1{fill:#F4EB49;}
	.st2{fill:#FFFFFF;}
	.st3{fill:none;}
	.st4{fill:#4B4B4A;}
	.st5{font-family:'Roboto-Regular';}
	.st6{font-size:8.2502px;}
	.st7{font-family:'Roboto-Bold';}
	.st8{fill:#FF699A;}
</style>
<g>
	<g>
		<path class="st0" d="M164.48,200.23H41.91V69.2c0-7.11,5.77-12.88,12.88-12.88h96.8c7.11,0,12.88,5.77,12.88,12.88V200.23z"/>
		<path class="st1" d="M158.4,200.23H47.99V83.58c0-7.11,5.77-12.88,12.88-12.88h84.65c7.11,0,12.88,5.77,12.88,12.88V200.23z"/>
		<path class="st2" d="M146.07,154.44H60.59c-3.27,0-5.91-2.65-5.91-5.91v-23.71c0-3.27,2.65-5.91,5.91-5.91h85.48
			c3.27,0,5.91,2.65,5.91,5.91v23.71C151.99,151.79,149.34,154.44,146.07,154.44z"/>
		<rect x="58.05" y="122.44" class="st3" width="90.52" height="28.29"/>
		<text transform="matrix(1 0 0 1 58.0508 128.6289)"><tspan x="0" y="0" class="st4 st5 st6">Blumpa: seu código </tspan><tspan x="0" y="9.9" class="st4 st5 st6">para recuperar senha é </tspan><tspan x="0" y="19.8" class="st4 st7 st6">ABC123</tspan></text>
		<path class="st8" d="M108.79,97.51H97.6c-1.11,0-2.02,0.9-2.02,2.02v5.08c0,1.11,0.9,2.02,2.02,2.02h7.4c0,0,1.19,3.08,3.14,2.96
			c-0.59-1.14,0.01-2.73,0.1-2.96h0.54c1.11,0,2.02-0.9,2.02-2.02v-5.08C110.8,98.42,109.9,97.51,108.79,97.51z"/>
	</g>
	<rect x="164.48" y="107" class="st0" width="2.52" height="24.51"/>
	<rect x="39.38" y="89.5" class="st0" width="2.52" height="24.51"/>
	<rect x="39.38" y="117.31" class="st0" width="2.52" height="24.51"/>
	<circle class="st1" cx="85.79" cy="64.63" r="2.3"/>
	<path class="st1" d="M109.97,66.34H91.16c-0.53,0-0.96-0.43-0.96-0.96V64c0-0.53,0.43-0.96,0.96-0.96h18.81
		c0.53,0,0.96,0.43,0.96,0.96v1.37C110.94,65.91,110.51,66.34,109.97,66.34z"/>
</g>
</svg>
