<?xml version="1.0" encoding="utf-8"?>
<!-- Generator: Adobe Illustrator 23.0.1, SVG Export Plug-In . SVG Version: 6.00 Build 0)  -->
<svg version="1.0" id="Layer_1" xmlns="http://www.w3.org/2000/svg" xmlns:xlink="http://www.w3.org/1999/xlink" x="0px" y="0px"
	 viewBox="0 0 336 148" style="enable-background:new 0 0 336 148;" xml:space="preserve">
<style type="text/css">
	.st0{fill:#6BB5E4;}
	.st1{fill:#7A7C7F;}
</style>
<g>
	<path class="st0" d="M100.15,104.89h4.55c3.98,0,6.56,2.64,6.56,6.75c0,4.11-2.57,6.75-6.56,6.75h-4.55V104.89z M104.62,116.35
		c2.84,0,4.36-1.83,4.36-4.71c0-2.9-1.52-4.73-4.36-4.73h-2.18v9.44H104.62z"/>
	<path class="st0" d="M120.99,118.4h-2.29v-13.51h2.29V118.4z"/>
	<path class="st0" d="M135.3,104.89l5.19,13.51h-2.33l-1.39-3.74h-5.17l-1.39,3.74h-2.31l5.19-13.51H135.3z M132.33,112.68h3.7
		l-1.85-4.99L132.33,112.68z"/>
	<path class="st0" d="M149.73,112.92v5.48h-2.29v-13.51h5.21c2.79,0,4.6,1.41,4.6,4.05c0,2.27-1.32,3.56-3.45,3.89l3.92,5.57h-2.6
		l-3.76-5.48H149.73z M149.73,111.01h2.88c1.52,0,2.38-0.81,2.38-2.07c0-1.25-0.86-2.07-2.38-2.07h-2.88V111.01z"/>
	<path class="st0" d="M167.09,118.4h-2.29v-13.51h2.29V118.4z"/>
	<path class="st0" d="M176.62,114.66c0.44,1.39,1.58,2.02,3.06,2.02c1.58,0,2.62-0.75,2.62-2c0-0.95-0.55-1.5-1.96-1.83l-2.29-0.55
		c-1.87-0.44-3.37-1.45-3.37-3.63c0-2.29,1.87-4,4.6-4c2.93,0,4.64,1.5,5.13,3.74h-2.29c-0.35-1.01-1.21-1.8-2.82-1.8
		c-1.45,0-2.44,0.75-2.44,1.87c0,0.9,0.57,1.47,1.78,1.76l2.35,0.55c2.11,0.48,3.5,1.72,3.5,3.74c0,2.53-2.02,4.09-4.82,4.09
		c-2.86,0-4.91-1.45-5.39-3.96H176.62z"/>
	<path class="st0" d="M190.95,104.89h11.27v2.02h-4.49v11.49h-2.29v-11.49h-4.49V104.89z"/>
	<path class="st0" d="M213.94,104.89l5.19,13.51h-2.33l-1.39-3.74h-5.17l-1.39,3.74h-2.31l5.19-13.51H213.94z M210.97,112.68h3.7
		l-1.85-4.99L210.97,112.68z"/>
	<path class="st0" d="M227.29,114.66c0.44,1.39,1.58,2.02,3.06,2.02c1.58,0,2.62-0.75,2.62-2c0-0.95-0.55-1.5-1.96-1.83l-2.29-0.55
		c-1.87-0.44-3.37-1.45-3.37-3.63c0-2.29,1.87-4,4.6-4c2.93,0,4.64,1.5,5.13,3.74h-2.29c-0.35-1.01-1.21-1.8-2.82-1.8
		c-1.45,0-2.44,0.75-2.44,1.87c0,0.9,0.57,1.47,1.78,1.76l2.35,0.55c2.11,0.48,3.5,1.72,3.5,3.74c0,2.53-2.02,4.09-4.82,4.09
		c-2.86,0-4.91-1.45-5.39-3.96H227.29z"/>
</g>
<g>
	<path class="st1" d="M36.23,50.44c5.56,2.81,6.24,8.02,5.73,11.11c-1.03,6.53-5.44,10.48-14.43,10.48H12.38
		c-0.78,0-1.42-0.63-1.42-1.42V32.89c0-0.78,0.63-1.42,1.42-1.42h14.85c7.73,0,13.4,4.64,13.17,12.37
		C40.35,45.68,39.15,48.95,36.23,50.44z M27.23,47.34c4.98,0,5.16-7.22,0-7.22h-5.96v7.22H27.23z M27.23,63.04
		c6.19,0,6.07-8.31,0-8.31h-5.96v8.31H27.23z"/>
	<path class="st1" d="M61.46,31.48h7.48c0.78,0,1.42,0.63,1.42,1.42v29h15.08c0.78,0,1.42,0.63,1.42,1.42v7.3
		c0,0.78-0.63,1.42-1.42,1.42H61.46c-0.78,0-1.42-0.63-1.42-1.42V32.89C60.04,32.11,60.68,31.48,61.46,31.48z"/>
	<path class="st1" d="M187.3,31.48h7.9c0.57,0,1.08,0.34,1.3,0.86l8.17,18.96l8.22-18.97c0.22-0.52,0.74-0.85,1.3-0.85h7.91
		c0.78,0,1.42,0.63,1.42,1.42v37.72c0,0.78-0.63,1.42-1.42,1.42h-7.13c-0.78,0-1.42-0.63-1.42-1.42V52.1l-4.98,13.01
		c-0.21,0.55-0.74,0.91-1.32,0.91h-5.1c-0.58,0-1.11-0.36-1.32-0.9l-5.09-13.02v18.52c0,0.78-0.63,1.42-1.42,1.42h-7.02
		c-0.78,0-1.42-0.63-1.42-1.42V32.89C185.88,32.11,186.52,31.48,187.3,31.48z"/>
	<path class="st1" d="M244.04,32.89c0-0.78,0.63-1.42,1.42-1.42h14.79c9.91,0,14.84,7.16,14.84,14.32c0,7.22-4.98,14.38-14.78,14.38
		h-6.01v10.44c0,0.78-0.63,1.42-1.42,1.42h-7.42c-0.78,0-1.42-0.63-1.42-1.42V32.89z M260.25,51.07c6.19,0.06,6.19-10.08,0-10.02
		h-5.96v10.02H260.25z"/>
	<path class="st1" d="M323,72.03h-7.96c-0.61,0-1.16-0.4-1.35-0.98l-2.32-7.15h-10.83l-2.21,7.14c-0.18,0.59-0.73,1-1.35,1h-7.96
		c-0.98,0-1.66-0.96-1.34-1.88l12.44-37.72c0.2-0.57,0.74-0.95,1.34-0.95h8.77c0.6,0,1.13,0.38,1.33,0.94l12.76,37.72
		C324.67,71.06,323.98,72.03,323,72.03z M309.15,54.79l-3.17-11.86l-3.36,11.86H309.15z"/>
</g>
<g>
	<path class="st0" d="M117.23,72.29L99.28,54.33c-0.55-0.55-0.55-1.45,0-2l5.84-5.84c0.55-0.55,1.45-0.55,2,0l15,15
		c1.29,1.29,3.38,1.29,4.67,0l32.9-32.9c0.55-0.55,1.45-0.55,2,0l5.97,5.97c0.55,0.55,0.55,1.45,0,2l-35.72,35.72
		C127.89,76.35,121.3,76.35,117.23,72.29z"/>
</g>
</svg>
