<?xml version="1.0" encoding="utf-8"?>
<!-- Generator: Adobe Illustrator 23.0.1, SVG Export Plug-In . SVG Version: 6.00 Build 0)  -->
<svg version="1.0" id="Layer_1" xmlns="http://www.w3.org/2000/svg" xmlns:xlink="http://www.w3.org/1999/xlink" x="0px" y="0px"
	 viewBox="0 0 105.09 107.47" style="enable-background:new 0 0 105.09 107.47;" xml:space="preserve">
<style type="text/css">
	.st0{fill:#39B7E3;}
	.st1{fill:none;stroke:#39B7E3;stroke-width:4;stroke-miterlimit:10;}
</style>
<path class="st0" d="M33.01,67.87h-6.12c-2.21,0-4.01-1.8-4.01-4.01V51.18c0-2.21,1.8-4.01,4.01-4.01h6.12
	c2.21,0,4.01,1.8,4.01,4.01v12.69C37.01,66.07,35.22,67.87,33.01,67.87z M33.01,63.87v2V63.87C33.01,63.87,33.01,63.87,33.01,63.87z
	 M26.89,51.17l-0.01,12.69L33,63.87l0.01-12.69L26.89,51.17z"/>
<path class="st0" d="M69.87,78.7h-8.2c-1.1,0-2-0.9-2-2s0.9-2,2-2h8.2c1.89,0,3.42-1.48,3.42-3.29v-1.72c0-1.1,0.9-2,2-2s2,0.9,2,2
	v1.72C77.29,75.43,73.96,78.7,69.87,78.7z"/>
<path class="st0" d="M78.16,67.87h-6.12c-2.21,0-4.01-1.8-4.01-4.01V51.18c0-2.21,1.8-4.01,4.01-4.01h6.12
	c2.21,0,4.01,1.8,4.01,4.01v12.69C82.17,66.07,80.37,67.87,78.16,67.87z M78.16,63.87v2V63.87L78.16,63.87z M72.05,51.17
	l-0.01,12.69l6.12,0.01l0.01-12.69L72.05,51.17z"/>
<path class="st0" d="M55.87,82.04h-6.12c-2.21,0-4.01-1.8-4.01-4.01v-1.91c0-2.21,1.8-4.01,4.01-4.01h6.12
	c2.21,0,4.01,1.8,4.01,4.01v1.91C59.87,80.25,58.08,82.04,55.87,82.04z M55.87,78.04v2V78.04L55.87,78.04z M49.75,76.12l-0.01,1.92
	l6.12,0.01l0.01-1.91L49.75,76.12z"/>
<path class="st1" d="M30.32,49"/>
<path class="st0" d="M75.22,46.09c-1.03,0-1.91-0.79-1.99-1.84c-0.85-10.55-9.82-18.81-20.42-18.81c-10.6,0-19.56,8.26-20.42,18.81
	c-0.09,1.1-1.06,1.92-2.15,1.83c-1.1-0.09-1.92-1.05-1.83-2.15c1.02-12.61,11.74-22.49,24.4-22.49c12.67,0,23.38,9.88,24.4,22.49
	c0.09,1.1-0.73,2.07-1.83,2.15C75.32,46.09,75.27,46.09,75.22,46.09z"/>
<path class="st1" d="M90.59,85.07"/>
<path class="st1" d="M41.72,86.22"/>
<path class="st0" d="M94.34,100.69c-9.59,0-17.64-4.92-20.49-6.91c-6.9,3.73-14.68,5.69-22.58,5.69
	c-26.21,0-47.54-21.33-47.54-47.54C3.73,25.73,25.05,4.4,51.27,4.4s47.54,21.33,47.54,47.54c0,9.44-2.76,18.56-7.98,26.38
	c-0.12,0.2-0.43,0.7-1.1,1.63c0.29,2.86,5.09,10.99,9.68,17.34l1.95,2.7l-3.3,0.46C96.8,100.61,95.56,100.69,94.34,100.69z
	 M74.17,89l1.06,0.85c0.09,0.07,8.62,6.71,18.86,6.84c-3.45-5.06-8.79-13.63-8.35-17.62l0.06-0.53l0.32-0.43
	c0.96-1.31,1.26-1.82,1.26-1.83l0.08-0.13c4.8-7.17,7.34-15.54,7.34-24.2c0-24.01-19.53-43.54-43.54-43.54
	C27.26,8.4,7.73,27.93,7.73,51.94s19.53,43.54,43.54,43.54c7.64,0,15.15-2,21.72-5.8L74.17,89z"/>
</svg>
