<?xml version="1.0" encoding="utf-8"?>
<!-- Generator: Adobe Illustrator 23.0.1, SVG Export Plug-In . SVG Version: 6.00 Build 0)  -->
<svg version="1.0" id="Layer_1" xmlns="http://www.w3.org/2000/svg" xmlns:xlink="http://www.w3.org/1999/xlink" x="0px" y="0px"
	 viewBox="0 0 105.09 107.47" style="enable-background:new 0 0 105.09 107.47;" xml:space="preserve">
<style type="text/css">
	.st0{fill:#40B7E2;}
</style>
<path class="st0" d="M52.53,95.1c-1.11,0-2.22-0.41-3.08-1.22c-3.37-3.17-6.81-6.31-10.14-9.34l-1.38-1.26
	c-1.89-1.73-3.78-3.42-5.63-5.09c-16.66-15-31.05-27.96-30.21-43.68c0.59-11.04,8.21-19.27,19.91-21.48
	c10.36-1.96,23.97,1.44,30.54,13.23c6.6-11.91,20.31-15.34,30.74-13.37c11.59,2.19,19.15,10.36,19.73,21.32
	c0.79,14.81-12.22,27.01-27.27,41.14l-2.04,1.9c-2.6,2.42-5.25,4.84-7.92,7.28c-3.35,3.06-6.82,6.22-10.15,9.36
	C54.75,94.7,53.64,95.1,52.53,95.1z M27.68,16.5c-1.7,0-3.37,0.16-4.95,0.45C15.06,18.4,6.66,23.83,6.08,34.72
	c-0.73,13.82,13,26.18,28.9,40.5c1.86,1.67,3.75,3.38,5.65,5.11L42,81.59c3.34,3.04,6.79,6.19,10.18,9.38c0.2,0.18,0.49,0.18,0.68,0
	c3.36-3.16,6.83-6.33,10.2-9.4c2.66-2.43,5.31-4.84,7.89-7.25l2.03-1.9c14.92-14,26.7-25.06,26.02-38.01
	c-0.57-10.79-8.89-16.17-16.48-17.6c-9.5-1.79-22.11,1.53-27.35,13.07c-0.48,1.06-1.49,1.71-2.65,1.71c0,0,0,0,0,0
	c-1.15,0-2.17-0.66-2.64-1.71C45.56,20.37,36.16,16.5,27.68,16.5z"/>
</svg>
