<?xml version="1.0" encoding="utf-8"?>
<!-- Generator: Adobe Illustrator 23.0.1, SVG Export Plug-In . SVG Version: 6.00 Build 0)  -->
<svg version="1.0" id="Layer_1" xmlns="http://www.w3.org/2000/svg" xmlns:xlink="http://www.w3.org/1999/xlink" x="0px" y="0px"
	 viewBox="0 0 105.09 107.47" style="enable-background:new 0 0 105.09 107.47;" xml:space="preserve">
<style type="text/css">
	.st0{fill:#3EB7E2;}
	.st1{fill:none;stroke:#3EB7E2;stroke-width:4;stroke-miterlimit:10;}
</style>
<path class="st0" d="M52.54,96.23c-0.43,0-0.87-0.04-1.3-0.13c-1.74-0.35-3.24-1.35-4.22-2.83c-0.98-1.48-1.33-3.25-0.98-4.98
	c0.35-1.74,1.35-3.24,2.83-4.22c1.47-0.98,3.24-1.33,4.98-0.99c3.59,0.72,5.92,4.22,5.21,7.81c-0.22,1.08-1.28,1.78-2.35,1.57
	c-1.08-0.22-1.79-1.27-1.57-2.35c0.29-1.43-0.64-2.82-2.07-3.11c-0.69-0.14-1.39,0-1.98,0.39s-0.99,0.99-1.12,1.68s0,1.39,0.39,1.98
	s0.99,0.98,1.68,1.12c0.59,0.12,1.19,0.04,1.73-0.24c0.98-0.51,2.19-0.12,2.69,0.86s0.12,2.19-0.86,2.69
	C54.64,95.97,53.59,96.23,52.54,96.23z"/>
<path class="st1" d="M72.38,102.23"/>
<path class="st0" d="M74.21,104.23H30.88c-3.58,0-6.5-2.92-6.5-6.5v-88c0-3.58,2.92-6.5,6.5-6.5h43.33c3.58,0,6.5,2.92,6.5,6.5v88
	C80.71,101.32,77.79,104.23,74.21,104.23z M30.88,7.23c-1.38,0-2.5,1.12-2.5,2.5v88c0,1.38,1.12,2.5,2.5,2.5h43.33
	c1.38,0,2.5-1.12,2.5-2.5v-88c0-1.38-1.12-2.5-2.5-2.5H30.88z"/>
<path class="st0" d="M68.81,80.98H36.27c-3.58,0-6.5-2.92-6.5-6.5V16.73c0-3.58,2.92-6.5,6.5-6.5h32.54c3.58,0,6.5,2.92,6.5,6.5
	v57.75C75.31,78.07,72.4,80.98,68.81,80.98z M36.27,14.23c-1.38,0-2.5,1.12-2.5,2.5v57.75c0,1.38,1.12,2.5,2.5,2.5h32.54
	c1.38,0,2.5-1.12,2.5-2.5V16.73c0-1.38-1.12-2.5-2.5-2.5H36.27z"/>
</svg>
