<?xml version="1.0" encoding="utf-8"?>
<!-- Generator: Adobe Illustrator 23.0.1, SVG Export Plug-In . SVG Version: 6.00 Build 0)  -->
<svg version="1.0" id="Layer_1" xmlns="http://www.w3.org/2000/svg" xmlns:xlink="http://www.w3.org/1999/xlink" x="0px" y="0px"
	 viewBox="0 0 127.36 127.36" style="enable-background:new 0 0 127.36 127.36;" xml:space="preserve">
<style type="text/css">
	.st0{fill:#6CB5E4;}
</style>
<path class="st0" d="M64,118.42c-26.75,0-48.52-21.76-48.52-48.52c0-26.75,21.76-48.52,48.52-48.52c26.75,0,48.52,21.76,48.52,48.52
	C112.52,96.65,90.75,118.42,64,118.42z M64,31.38c-21.24,0-38.52,17.28-38.52,38.52S42.76,108.42,64,108.42s38.52-17.28,38.52-38.52
	S85.24,31.38,64,31.38z"/>
<path class="st0" d="M64,64.24c-2.76,0-5-2.24-5-5V17.12c0-2.76,2.24-5,5-5c2.76,0,5,2.24,5,5v42.13C69,62.01,66.76,64.24,64,64.24z
	"/>
</svg>
