<?xml version="1.0" encoding="utf-8"?>
<!-- Generator: Adobe Illustrator 23.0.1, SVG Export Plug-In . SVG Version: 6.00 Build 0)  -->
<svg version="1.0" id="Layer_1" xmlns="http://www.w3.org/2000/svg" xmlns:xlink="http://www.w3.org/1999/xlink" x="0px" y="0px"
	 viewBox="0 0 127.36 127.36" style="enable-background:new 0 0 127.36 127.36;" xml:space="preserve">
<style type="text/css">
	.st0{fill:#6BB3E3;}
</style>
<g>
	
		<ellipse transform="matrix(0.3827 -0.9239 0.9239 0.3827 -76.0035 95.2985)" class="st0" cx="33.31" cy="104.52" rx="8.1" ry="8.1"/>
	
		<ellipse transform="matrix(0.3827 -0.9239 0.9239 0.3827 -41.1337 147.4848)" class="st0" cx="89.8" cy="104.52" rx="8.1" ry="8.1"/>
	<path class="st0" d="M109.68,25.73h-3.72c-3.42,0-6.21,2.79-6.21,6.21v10H21.84c-2.49,0-4.5,2.01-4.5,4.5v44.32
		c0,2.49,2.01,4.5,4.5,4.5h79.56c2.49,0,4.5-2.01,4.5-4.5V41.94h-0.01v-9.63c0-0.43,0.35-0.79,0.79-0.79h2.92
		c1.32,0,2.39-1.07,2.39-2.39v-1.09C111.99,26.77,110.96,25.73,109.68,25.73z"/>
</g>
</svg>
