<?xml version="1.0" encoding="utf-8"?>
<!-- Generator: Adobe Illustrator 23.0.1, SVG Export Plug-In . SVG Version: 6.00 Build 0)  -->
<svg version="1.0" id="Layer_1" xmlns="http://www.w3.org/2000/svg" xmlns:xlink="http://www.w3.org/1999/xlink" x="0px" y="0px"
	 viewBox="0 0 129.28 133.89" style="enable-background:new 0 0 129.28 133.89;" xml:space="preserve">
<style type="text/css">
	.st0{clip-path:url(#SVGID_2_);fill:#6FB5E4;}
	.st1{clip-path:url(#SVGID_2_);}
	.st2{fill:#6FB5E4;}
</style>
<g>
	<defs>
		<rect id="SVGID_1_" x="16.43" y="10.81" width="95.32" height="110.3"/>
	</defs>
	<clipPath id="SVGID_2_">
		<use xlink:href="#SVGID_1_"  style="overflow:visible;"/>
	</clipPath>
	<path class="st0" d="M49.16,111.93h-6.44c-2.89,0-5.25-2.82-5.25-6.29V24.94c0-3.47,2.35-6.29,5.25-6.29h6.96c1.1,0,2,0.9,2,2
		s-0.9,2-2,2h-6.96c-0.5,0-1.25,0.92-1.25,2.29v80.69c0,1.38,0.75,2.29,1.25,2.29h6.44c1.1,0,2,0.9,2,2S50.27,111.93,49.16,111.93z"
		/>
	<g class="st1">
		<path class="st2" d="M26.89,72.15c-0.87,0-0.87,0-6.13-5.27l-1.41-1.41l6.1-6.1c0.78-0.78,2.05-0.78,2.83,0
			c0.78,0.78,0.78,2.05,0,2.83L25,65.47c1.41,1.4,2.9,2.89,3.19,3.16c0.43,0.37,0.7,0.91,0.7,1.52
			C28.89,71.25,27.99,72.15,26.89,72.15z"/>
		<path class="st2" d="M33.83,67.47H22.17c-1.1,0-2-0.9-2-2s0.9-2,2-2h11.66c1.1,0,2,0.9,2,2S34.94,67.47,33.83,67.47z"/>
	</g>
	<g class="st1">
		<path class="st2" d="M100.17,16.79h-43c-2.57,0-4.67,2.1-4.67,4.67v87.67c0,2.57,2.1,4.67,4.67,4.67h43c2.57,0,4.67-2.1,4.67-4.67
			V21.45C104.83,18.89,102.73,16.79,100.17,16.79z M62.15,70.35c-2.56,0-4.64-2.08-4.64-4.64c0-2.56,2.08-4.64,4.64-4.64
			c2.56,0,4.64,2.08,4.64,4.64C66.79,68.27,64.71,70.35,62.15,70.35z"/>
		<path class="st2" d="M100.17,114.29h-43c-2.85,0-5.17-2.32-5.17-5.17V21.45c0-2.85,2.32-5.17,5.17-5.17h43
			c2.85,0,5.17,2.32,5.17,5.17v87.67C105.33,111.97,103.01,114.29,100.17,114.29z M57.17,17.29c-2.3,0-4.17,1.87-4.17,4.17v87.67
			c0,2.3,1.87,4.17,4.17,4.17h43c2.3,0,4.17-1.87,4.17-4.17V21.45c0-2.3-1.87-4.17-4.17-4.17H57.17z M62.15,70.85
			c-2.83,0-5.14-2.31-5.14-5.14s2.31-5.14,5.14-5.14c2.83,0,5.14,2.31,5.14,5.14S64.99,70.85,62.15,70.85z M62.15,61.57
			c-2.28,0-4.14,1.86-4.14,4.14c0,2.28,1.86,4.14,4.14,4.14s4.14-1.86,4.14-4.14C66.29,63.43,64.43,61.57,62.15,61.57z"/>
	</g>
</g>
</svg>
