<?xml version="1.0" encoding="utf-8"?>
<!-- Generator: Adobe Illustrator 23.0.1, SVG Export Plug-In . SVG Version: 6.00 Build 0)  -->
<svg version="1.0" id="Layer_1" xmlns="http://www.w3.org/2000/svg" xmlns:xlink="http://www.w3.org/1999/xlink" x="0px" y="0px"
	 viewBox="0 0 127.36 127.36" style="enable-background:new 0 0 127.36 127.36;" xml:space="preserve">
<style type="text/css">
	.st0{fill:#6BB3E3;}
</style>
<g>
	
		<ellipse transform="matrix(0.3827 -0.9239 0.9239 0.3827 -12.1844 89.5777)" class="st0" cx="60.94" cy="53.91" rx="15.51" ry="15.51"/>
	<path class="st0" d="M64,15.11c-26.79,0-48.5,21.71-48.5,48.5c0,26.79,21.71,48.5,48.5,48.5c26.79,0,48.5-21.71,48.5-48.5
		C112.5,36.83,90.79,15.11,64,15.11z M84.3,96.69c-0.51,0.32-1.08,0.47-1.64,0.47c-1.06,0-2.09-0.53-2.68-1.5L67.16,74.8
		c-1.97,0.59-4.06,0.91-6.22,0.91c-12.02,0-21.8-9.78-21.8-21.8c0-12.02,9.78-21.8,21.8-21.8c12.02,0,21.8,9.78,21.8,21.8
		c0,7.61-3.92,14.31-9.84,18.21l12.44,20.25C86.25,93.85,85.78,95.79,84.3,96.69z"/>
</g>
</svg>
