<?xml version="1.0" encoding="utf-8"?>
<!-- Generator: Adobe Illustrator 23.0.1, SVG Export Plug-In . SVG Version: 6.00 Build 0)  -->
<svg version="1.0" id="Layer_1" xmlns="http://www.w3.org/2000/svg" xmlns:xlink="http://www.w3.org/1999/xlink" x="0px" y="0px"
	 viewBox="0 0 127.36 127.36" style="enable-background:new 0 0 127.36 127.36;" xml:space="preserve">
<style type="text/css">
	.st0{fill:#6BB3E3;}
</style>
<path class="st0" d="M63.68,16.5c-26.79,0-48.5,21.71-48.5,48.5s21.71,48.5,48.5,48.5s48.5-21.71,48.5-48.5S90.47,16.5,63.68,16.5z
	 M89.37,95.96c-0.98,0.98-2.26,1.46-3.54,1.46s-2.56-0.49-3.54-1.46L59.15,72.8c-1.07-1.07-1.54-2.51-1.43-3.91
	c-0.01-0.12-0.04-0.24-0.04-0.36V35.78c0-2.76,2.24-5,5-5c2.76,0,5,2.24,5,5v31.42l21.69,21.69C91.33,90.84,91.33,94,89.37,95.96z"
	/>
</svg>
