<?xml version="1.0" encoding="utf-8"?>
<!-- Generator: Adobe Illustrator 23.0.1, SVG Export Plug-In . SVG Version: 6.00 Build 0)  -->
<svg version="1.0" id="Layer_1" xmlns="http://www.w3.org/2000/svg" xmlns:xlink="http://www.w3.org/1999/xlink" x="0px" y="0px"
	 viewBox="0 0 129.28 133.89" style="enable-background:new 0 0 129.28 133.89;" xml:space="preserve">
<style type="text/css">
	.st0{fill:#6DB5E4;}
</style>
<path class="st0" d="M66.41,16.71c-26.98,0-48.85,21.87-48.85,48.85s21.87,48.85,48.85,48.85c26.98,0,48.85-21.87,48.85-48.85
	S93.39,16.71,66.41,16.71z M94.49,89.15c1.17,1.17,1.17,3.07,0,4.24c-0.59,0.59-1.35,0.88-2.12,0.88s-1.54-0.29-2.12-0.88
	L66.41,69.56L42.57,93.4c-0.59,0.59-1.35,0.88-2.12,0.88s-1.54-0.29-2.12-0.88c-1.17-1.17-1.17-3.07,0-4.24l23.84-23.84L38.33,41.48
	c-1.17-1.17-1.17-3.07,0-4.24c1.17-1.17,3.07-1.17,4.24,0l23.84,23.84l24.05-24.05c1.17-1.17,3.07-1.17,4.24,0
	c1.17,1.17,1.17,3.07,0,4.24L70.65,65.32L94.49,89.15z"/>
</svg>
