<?xml version="1.0" encoding="utf-8"?>
<!-- Generator: Adobe Illustrator 23.0.1, SVG Export Plug-In . SVG Version: 6.00 Build 0)  -->
<svg version="1.0" id="Layer_1" xmlns="http://www.w3.org/2000/svg" xmlns:xlink="http://www.w3.org/1999/xlink" x="0px" y="0px"
	 viewBox="0 0 127.36 127.36" style="enable-background:new 0 0 127.36 127.36;" xml:space="preserve">
<style type="text/css">
	.st0{fill:#6BB3E3;}
</style>
<path class="st0" d="M107.9,34.04h-88c-2.49,0-4.5,2.01-4.5,4.5V89c0,2.49,2.01,4.5,4.5,4.5h88c2.49,0,4.5-2.01,4.5-4.5V38.54
	C112.4,36.06,110.39,34.04,107.9,34.04z M19.74,46.09c0-2.49,2.01-4.5,4.5-4.5h13.81c2.49,0,4.5,2.01,4.5,4.5v4.98
	c0,2.49-2.01,4.5-4.5,4.5H24.24c-2.49,0-4.5-2.01-4.5-4.5V46.09z M109.07,77.59c0,1.62-1.31,2.93-2.93,2.93H21.67
	c-1.62,0-2.93-1.31-2.93-2.93v-3.14c0-1.62,1.31-2.93,2.93-2.93h84.46c1.62,0,2.93,1.31,2.93,2.93V77.59z"/>
</svg>
