<?xml version="1.0" encoding="utf-8"?>
<!-- Generator: Adobe Illustrator 23.0.1, SVG Export Plug-In . SVG Version: 6.00 Build 0)  -->
<svg version="1.0" id="Layer_1" xmlns="http://www.w3.org/2000/svg" xmlns:xlink="http://www.w3.org/1999/xlink" x="0px" y="0px"
	 viewBox="0 0 127.36 127.36" style="enable-background:new 0 0 127.36 127.36;" xml:space="preserve">
<style type="text/css">
	.st0{fill:#6BB3E3;}
</style>
<path class="st0" d="M64.11,19.5c-26.79,0-48.5,21.71-48.5,48.5c0,26.79,21.71,48.5,48.5,48.5s48.5-21.71,48.5-48.5
	C112.61,41.21,90.9,19.5,64.11,19.5z M61.91,32.27h4.03c1.29,0,2.33,1.05,2.31,2.34l-0.59,44.36c-0.02,1.27-1.05,2.28-2.31,2.28
	h-2.89c-1.27,0-2.3-1.02-2.31-2.28l-0.55-44.36C59.58,33.32,60.62,32.27,61.91,32.27z M67.65,99.65c-0.8,0.92-1.98,1.38-3.54,1.38
	c-1.59,0-2.78-0.46-3.56-1.38s-1.17-2.09-1.17-3.49s0.39-2.59,1.17-3.54s1.97-1.43,3.56-1.43c1.56,0,2.74,0.48,3.54,1.43
	s1.2,2.13,1.2,3.54S68.45,98.73,67.65,99.65z"/>
</svg>
