<?xml version="1.0" encoding="utf-8"?>
<!-- Generator: Adobe Illustrator 23.0.1, SVG Export Plug-In . SVG Version: 6.00 Build 0)  -->
<svg version="1.0" id="Layer_1" xmlns="http://www.w3.org/2000/svg" xmlns:xlink="http://www.w3.org/1999/xlink" x="0px" y="0px"
	 viewBox="0 0 129.28 133.89" style="enable-background:new 0 0 129.28 133.89;" xml:space="preserve">
<style type="text/css">
	.st0{clip-path:url(#SVGID_2_);}
	.st1{fill:#6CB5E4;}
</style>
<g>
	<defs>
		<rect id="SVGID_1_" x="10.51" y="13.53" width="109.96" height="107.23"/>
	</defs>
	<clipPath id="SVGID_2_">
		<use xlink:href="#SVGID_1_"  style="overflow:visible;"/>
	</clipPath>
	<g class="st0">
		<path class="st1" d="M76.86,59.32c-2.09,0-3.63,1.03-4.61,3.1c-0.98,2.07-1.49,5.18-1.53,9.35v8.64c0,4.42,0.51,7.74,1.53,9.95
			c1.02,2.22,2.57,3.33,4.67,3.33c2.07,0,3.6-1.05,4.58-3.14c0.98-2.09,1.49-5.29,1.53-9.59v-8.67c0-4.44-0.49-7.71-1.47-9.81
			C80.57,60.37,79.01,59.32,76.86,59.32z"/>
		<g>
			<path class="st1" d="M108.93,19.34h-88c-2.49,0-4.5,2.01-4.5,4.5v88c0,2.49,2.01,4.5,4.5,4.5h88c2.49,0,4.5-2.01,4.5-4.5v-88
				C113.43,21.35,111.42,19.34,108.93,19.34z M51.77,97.46h-5.13V61.94l-8.82,3.95v-4.84l13.14-5.73h0.81V97.46z M88.12,79.57
				c0,6.18-0.9,10.81-2.71,13.87c-1.81,3.06-4.64,4.59-8.5,4.59c-3.75,0-6.54-1.47-8.38-4.41c-1.84-2.94-2.8-7.36-2.88-13.25v-7.2
				c0-6.13,0.91-10.7,2.72-13.71c1.82-3.02,4.64-4.52,8.48-4.52c3.78,0,6.58,1.43,8.4,4.29c1.82,2.86,2.77,7.19,2.87,12.99V79.57z
				 M101.95,44.92H27.91c-1.1,0-2-0.9-2-2s0.9-2,2-2h74.04c1.1,0,2,0.9,2,2S103.06,44.92,101.95,44.92z"/>
		</g>
	</g>
</g>
</svg>
