<?xml version="1.0" encoding="utf-8"?>
<!-- Generator: Adobe Illustrator 23.0.1, SVG Export Plug-In . SVG Version: 6.00 Build 0)  -->
<svg version="1.0" id="Layer_1" xmlns="http://www.w3.org/2000/svg" xmlns:xlink="http://www.w3.org/1999/xlink" x="0px" y="0px"
	 viewBox="0 0 129.28 133.89" style="enable-background:new 0 0 129.28 133.89;" xml:space="preserve">
<style type="text/css">
	.st0{fill:#6CB5E4;}
</style>
<path class="st0" d="M65.78,18.09c-26.98,0-48.85,21.87-48.85,48.85c0,26.98,21.87,48.85,48.85,48.85
	c26.98,0,48.85-21.87,48.85-48.85C114.64,39.96,92.76,18.09,65.78,18.09z M66.16,26.55c8.01,0,14.51,6.5,14.51,14.51
	s-6.5,14.51-14.51,14.51s-14.51-6.5-14.51-14.51S58.15,26.55,66.16,26.55z M82.9,102.32c0,3.16-2.56,5.72-5.72,5.72h-22.8
	c-3.16,0-5.72-2.56-5.72-5.72V73.8h0.05c0.51-8.99,7.95-16.13,17.07-16.13c9.12,0,16.56,7.14,17.07,16.13h0.05V102.32z"/>
</svg>
