<?xml version="1.0" encoding="utf-8"?>
<!-- Generator: Adobe Illustrator 23.0.1, SVG Export Plug-In . SVG Version: 6.00 Build 0)  -->
<svg version="1.0" id="Layer_1" xmlns="http://www.w3.org/2000/svg" xmlns:xlink="http://www.w3.org/1999/xlink" x="0px" y="0px"
	 viewBox="0 0 127.36 127.36" style="enable-background:new 0 0 127.36 127.36;" xml:space="preserve">
<style type="text/css">
	.st0{fill:#6CB5E4;}
</style>
<path class="st0" d="M64.33,19.66c-26.69,0-48.34,21.64-48.34,48.34s21.64,48.34,48.34,48.34c26.69,0,48.34-21.64,48.34-48.34
	S91.02,19.66,64.33,19.66z M62.81,88.53c-4.07,4.07-10.66,4.07-14.73,0L30.13,70.58c-0.55-0.55-0.55-1.45,0-2l5.84-5.84
	c0.55-0.55,1.45-0.55,2,0l15,15c1.29,1.29,3.38,1.29,4.67,0l32.9-32.9c0.55-0.55,1.45-0.55,2,0l5.97,5.97c0.55,0.55,0.55,1.45,0,2
	L62.81,88.53z"/>
</svg>
