<?xml version="1.0" encoding="utf-8"?>
<!-- Generator: Adobe Illustrator 23.0.1, SVG Export Plug-In . SVG Version: 6.00 Build 0)  -->
<svg version="1.0" id="Layer_1" xmlns="http://www.w3.org/2000/svg" xmlns:xlink="http://www.w3.org/1999/xlink" x="0px" y="0px"
	 viewBox="0 0 127.36 127.36" style="enable-background:new 0 0 127.36 127.36;" xml:space="preserve">
<style type="text/css">
	.st0{fill:#6BB3E3;}
</style>
<path class="st0" d="M64,15.5c-26.79,0-48.5,21.71-48.5,48.5c0,26.79,21.71,48.5,48.5,48.5s48.5-21.71,48.5-48.5
	C112.5,37.21,90.79,15.5,64,15.5z M85.91,29.66L65.76,74.78c4.02,2.9,5.64,8.2,3.6,12.77l-7.63,17.09c-0.44,0.98-1.55,1.43-2.5,1.01
	l-16.26-7.26c-0.94-0.42-1.35-1.55-0.92-2.53l7.63-17.09c2.04-4.57,7.06-6.9,11.91-5.84L81.75,27.8c0.53-1.19,1.9-1.74,3.05-1.23
	C85.94,27.09,86.44,28.47,85.91,29.66z"/>
</svg>
