<?xml version="1.0" encoding="utf-8"?>
<!-- Generator: Adobe Illustrator 23.0.1, SVG Export Plug-In . SVG Version: 6.00 Build 0)  -->
<svg version="1.0" id="Layer_1" xmlns="http://www.w3.org/2000/svg" xmlns:xlink="http://www.w3.org/1999/xlink" x="0px" y="0px"
	 viewBox="0 0 127.36 127.36" style="enable-background:new 0 0 127.36 127.36;" xml:space="preserve">
<style type="text/css">
	.st0{fill:#6BB3E3;}
</style>
<path class="st0" d="M95.53,14.51H31.97c-2.49,0-4.5,2.01-4.5,4.5v89.98c0,2.49,2.01,4.5,4.5,4.5h63.55c2.49,0,4.5-2.01,4.5-4.5
	V19.01C100.03,16.53,98.01,14.51,95.53,14.51z M69.34,63.71H37.83c-1.1,0-2-0.9-2-2s0.9-2,2-2h31.51c1.1,0,2,0.9,2,2
	S70.45,63.71,69.34,63.71z M91.43,47.37H37.83c-1.1,0-2-0.9-2-2s0.9-2,2-2h53.59c1.1,0,2,0.9,2,2S92.53,47.37,91.43,47.37z
	 M91.43,31.09H37.83c-1.1,0-2-0.9-2-2s0.9-2,2-2h53.59c1.1,0,2,0.9,2,2S92.53,31.09,91.43,31.09z"/>
</svg>
