<?xml version="1.0" encoding="utf-8"?>
<!-- Generator: Adobe Illustrator 23.0.1, SVG Export Plug-In . SVG Version: 6.00 Build 0)  -->
<svg version="1.0" id="Layer_1" xmlns="http://www.w3.org/2000/svg" xmlns:xlink="http://www.w3.org/1999/xlink" x="0px" y="0px"
	 viewBox="0 0 129.28 133.89" style="enable-background:new 0 0 129.28 133.89;" xml:space="preserve">
<style type="text/css">
	.st0{clip-path:url(#SVGID_2_);fill:#6FB5E4;}
	.st1{clip-path:url(#SVGID_2_);}
	.st2{fill:#6FB5E4;}
</style>
<g>
	<defs>
		<rect id="SVGID_1_" x="17.32" y="10.47" width="97.87" height="111.32"/>
	</defs>
	<clipPath id="SVGID_2_">
		<use xlink:href="#SVGID_1_"  style="overflow:visible;"/>
	</clipPath>
	<path class="st0" d="M50.03,114.74h-6.44c-2.89,0-5.25-2.82-5.25-6.29V27.76c0-3.47,2.35-6.3,5.25-6.3h6.96c1.1,0,2,0.9,2,2
		s-0.9,2-2,2h-6.96c-0.5,0-1.25,0.92-1.25,2.3v80.69c0,1.38,0.75,2.29,1.25,2.29h6.44c1.1,0,2,0.9,2,2S51.14,114.74,50.03,114.74z"
		/>
	<g class="st1">
		<path class="st2" d="M30.02,74.96c-0.51,0-1.02-0.2-1.41-0.59c-0.78-0.78-0.78-2.05,0-2.83l3.27-3.27
			c-1.41-1.4-2.9-2.89-3.19-3.16c-0.43-0.37-0.7-0.91-0.7-1.52c0-1.1,0.9-2,2-2c0.87,0,0.87,0,6.13,5.27l1.41,1.41l-6.1,6.1
			C31.04,74.77,30.53,74.96,30.02,74.96z"/>
		<path class="st2" d="M34.7,70.28H23.04c-1.1,0-2-0.9-2-2s0.9-2,2-2H34.7c1.1,0,2,0.9,2,2S35.81,70.28,34.7,70.28z"/>
	</g>
	<g class="st1">
		<path class="st2" d="M101.03,19.6h-43c-2.57,0-4.67,2.1-4.67,4.67v87.67c0,2.57,2.1,4.67,4.67,4.67h43c2.57,0,4.67-2.1,4.67-4.67
			V24.27C105.7,21.7,103.6,19.6,101.03,19.6z M63.02,73.17c-2.56,0-4.64-2.08-4.64-4.64c0-2.56,2.08-4.64,4.64-4.64
			c2.56,0,4.64,2.08,4.64,4.64C67.66,71.09,65.58,73.17,63.02,73.17z"/>
		<path class="st2" d="M101.03,117.1h-43c-2.85,0-5.17-2.32-5.17-5.17V24.27c0-2.85,2.32-5.17,5.17-5.17h43
			c2.85,0,5.17,2.32,5.17,5.17v87.67C106.2,114.78,103.88,117.1,101.03,117.1z M58.03,20.1c-2.3,0-4.17,1.87-4.17,4.17v87.67
			c0,2.3,1.87,4.17,4.17,4.17h43c2.3,0,4.17-1.87,4.17-4.17V24.27c0-2.3-1.87-4.17-4.17-4.17H58.03z M63.02,73.67
			c-2.83,0-5.14-2.3-5.14-5.14c0-2.83,2.31-5.14,5.14-5.14c2.83,0,5.14,2.31,5.14,5.14C68.16,71.36,65.85,73.67,63.02,73.67z
			 M63.02,64.39c-2.28,0-4.14,1.86-4.14,4.14c0,2.28,1.86,4.14,4.14,4.14c2.28,0,4.14-1.86,4.14-4.14
			C67.16,66.25,65.3,64.39,63.02,64.39z"/>
	</g>
</g>
</svg>
