<?xml version="1.0" encoding="utf-8"?>
<!-- Generator: Adobe Illustrator 23.0.1, SVG Export Plug-In . SVG Version: 6.00 Build 0)  -->
<svg version="1.0" id="Layer_1" xmlns="http://www.w3.org/2000/svg" xmlns:xlink="http://www.w3.org/1999/xlink" x="0px" y="0px"
	 viewBox="0 0 127.36 127.36" style="enable-background:new 0 0 127.36 127.36;" xml:space="preserve">
<style type="text/css">
	.st0{fill:#6BB3E3;}
</style>
<path class="st0" d="M62.9,16.5c-26.79,0-48.5,21.71-48.5,48.5c0,26.79,21.71,48.5,48.5,48.5c26.79,0,48.5-21.71,48.5-48.5
	C111.4,38.21,89.68,16.5,62.9,16.5z M65.54,98.47c-0.8,0.92-1.98,1.38-3.54,1.38c-1.59,0-2.77-0.46-3.54-1.38s-1.15-2.09-1.15-3.49
	s0.38-2.59,1.15-3.54s1.95-1.43,3.54-1.43c1.56,0,2.74,0.48,3.54,1.43s1.2,2.13,1.2,3.54S66.34,97.55,65.54,98.47z M72.74,63.95
	l-4.31,5.2c-1.78,2.53-2.67,6.19-2.67,10.97h-8.25c0-3.75,0.39-6.8,1.17-9.14s2.69-5.33,5.72-8.95l3.28-4.22
	c2.19-3.06,3.28-6.25,3.28-9.56c0-3.28-0.68-5.85-2.04-7.71s-3.3-2.79-5.84-2.79c-2.38,0-4.35,0.84-5.93,2.53s-2.37,3.95-2.37,6.8
	h-8.25c0.06-5.16,1.63-9.27,4.69-12.33s7.02-4.59,11.86-4.59c5.03,0,8.98,1.58,11.86,4.73s4.31,7.52,4.31,13.08
	C79.26,53.27,77.08,58.6,72.74,63.95z"/>
</svg>
